<?xml version="1.0" encoding="UTF-8" standalone="no"?>
<svg
   xmlns:dc="http://purl.org/dc/elements/1.1/"
   xmlns:cc="http://creativecommons.org/ns#"
   xmlns:rdf="http://www.w3.org/1999/02/22-rdf-syntax-ns#"
   xmlns:svg="http://www.w3.org/2000/svg"
   xmlns="http://www.w3.org/2000/svg"
   xmlns:sodipodi="http://sodipodi.sourceforge.net/DTD/sodipodi-0.dtd"
   xmlns:inkscape="http://www.inkscape.org/namespaces/inkscape"
   width="750"
   height="750"
   version="1.1"
   id="svg6408"
   sodipodi:docname="t1.svg"
   inkscape:version="0.92.0 r">
  <metadata
     id="metadata6412">
    <rdf:RDF>
      <cc:Work
         rdf:about="">
        <dc:format>image/svg+xml</dc:format>
        <dc:type
           rdf:resource="http://purl.org/dc/dcmitype/StillImage" />
      </cc:Work>
    </rdf:RDF>
  </metadata>
  <sodipodi:namedview
     pagecolor="#ffffff"
     bordercolor="#666666"
     borderopacity="1"
     objecttolerance="10"
     gridtolerance="10"
     guidetolerance="10"
     inkscape:pageopacity="0"
     inkscape:pageshadow="2"
     inkscape:window-width="1366"
     inkscape:window-height="768"
     id="namedview6410"
     showgrid="false"
     inkscape:zoom="0.62933333"
     inkscape:cx="415.27895"
     inkscape:cy="392.55991"
     inkscape:window-x="0"
     inkscape:window-y="0"
     inkscape:window-maximized="1"
     inkscape:current-layer="svg6408" />
  <!--Created by MathGL library-->
  <!--Title: -->
  <!--CreationDate: Wed Jan 18 02:09:05 2017
-->
  <defs
     id="defs5914">
    <g
       id="nn_0000">
      <path
         d=" M 238 165 L 232 222 L 218 270 L 194 307 L 164 330 L 127 338 L 84 329 L 52 304 L 29 266 L 16 220 L 12 168 L 16 118 L 27 71 L 48 31 L 80 3 L 125 -6 L 168 2 L 200 29 L 222 67 L 234 114 L 238 165 Z  M 190 162 L 187 108 L 179 65 L 166 33 L 148 13 L 125 6 L 102 13 L 84 33 L 71 65 L 63 109 L 60 165 L 63 220 L 71 265 L 84 298 L 101 318 L 124 325 L 148 318 L 166 298 L 179 265 L 187 219 L 190 162 Z "
         id="path5911" />
    </g>
  </defs>
  <defs
     id="defs5919">
    <g
       id="nn_0001">
      <path
         d=" M 237 69 L 230 71 L 221 57 L 212 48 L 203 42 L 193 39 L 182 38 L 65 38 L 147 126 L 171 153 L 189 179 L 202 203 L 209 226 L 211 250 L 207 278 L 195 302 L 176 321 L 150 334 L 119 338 L 86 333 L 59 320 L 39 299 L 24 271 L 15 238 L 26 236 L 38 262 L 50 280 L 63 292 L 79 299 L 99 301 L 123 298 L 142 289 L 156 275 L 165 255 L 169 230 L 166 205 L 159 181 L 146 155 L 128 129 L 103 100 L 15 6 L 15 0 L 210 0 Z "
         id="path5916" />
    </g>
  </defs>
  <defs
     id="defs5924">
    <g
       id="nn_0002">
      <path
         d=" M 237 84 L 237 116 L 185 116 L 185 338 L 163 338 L 6 116 L 6 84 L 146 84 L 146 0 L 185 0 L 185 84 Z  M 146 116 L 26 116 L 146 287 Z "
         id="path5921" />
    </g>
  </defs>
  <defs
     id="defs5929">
    <g
       id="nn_0003">
      <path
         d=" M 223 342 L 185 337 L 152 329 L 123 317 L 97 300 L 71 277 L 52 254 L 37 229 L 26 201 L 19 171 L 17 140 L 18 118 L 21 98 L 26 78 L 33 60 L 41 44 L 53 26 L 68 12 L 86 1 L 106 -4 L 129 -6 L 148 -5 L 166 0 L 182 7 L 196 17 L 209 30 L 218 43 L 225 57 L 230 73 L 233 91 L 234 109 L 230 145 L 217 174 L 198 196 L 172 209 L 140 214 L 127 213 L 115 211 L 103 207 L 90 201 L 76 191 L 89 234 L 111 270 L 142 300 L 180 321 L 224 334 Z  M 189 94 L 187 65 L 180 41 L 169 23 L 154 11 L 134 7 L 109 13 L 89 30 L 75 56 L 66 91 L 64 133 L 67 157 L 76 173 L 89 184 L 105 189 L 122 191 L 146 187 L 165 175 L 179 156 L 187 128 L 189 94 Z "
         id="path5926" />
    </g>
  </defs>
  <defs
     id="defs5934">
    <g
       id="nn_0004">
      <path
         d=" M 223 78 L 220 100 L 213 121 L 199 141 L 177 162 L 145 185 L 171 200 L 190 215 L 203 229 L 210 246 L 212 267 L 208 289 L 197 309 L 179 324 L 156 334 L 128 338 L 97 335 L 70 324 L 49 308 L 36 287 L 31 260 L 33 242 L 38 225 L 49 208 L 67 189 L 93 166 L 66 145 L 47 127 L 35 111 L 30 94 L 28 75 L 32 48 L 45 25 L 66 8 L 92 -2 L 124 -6 L 157 -2 L 185 8 L 205 26 L 218 49 L 223 78 Z  M 177 267 L 176 249 L 171 234 L 162 220 L 149 207 L 131 195 L 107 210 L 90 225 L 77 240 L 70 257 L 68 275 L 71 292 L 78 305 L 89 316 L 104 322 L 123 324 L 142 322 L 157 314 L 168 302 L 175 286 L 177 267 Z  M 136 136 L 154 122 L 167 109 L 177 95 L 183 79 L 185 62 L 182 44 L 175 29 L 163 17 L 148 10 L 129 7 L 108 10 L 91 19 L 77 34 L 69 54 L 66 79 L 67 97 L 71 113 L 79 128 L 90 142 L 106 156 Z "
         id="path5931" />
    </g>
  </defs>
  <defs
     id="defs5939">
    <g
       id="nn_0005">
      <path
         d=" M 197 0 L 197 7 L 178 8 L 164 12 L 155 18 L 151 27 L 150 38 L 150 336 L 145 338 L 55 292 L 55 286 L 69 291 L 74 293 L 84 295 L 88 296 L 92 296 L 97 295 L 101 293 L 104 288 L 106 281 L 107 272 L 107 47 L 105 33 L 100 22 L 92 14 L 78 10 L 59 7 L 59 0 Z "
         id="path5936" />
    </g>
  </defs>
  <defs
     id="defs5944">
    <g
       id="nn_0006">
      <path
         d=" M 299 11 L 184 126 L 299 242 L 276 265 L 160 150 L 45 265 L 22 242 L 137 126 L 22 11 L 45 -11 L 160 103 L 276 -11 Z "
         id="path5941" />
    </g>
  </defs>
  <defs
     id="defs5949">
    <g
       id="nn_0007">
      <path
         d=" M 310 110 L 310 143 L 32 143 L 32 110 Z "
         id="path5946" />
    </g>
  </defs>
  <defs
     id="defs5954">
    <g
       id="nn_0008">
      <path
         d=" M 90 22 L 89 30 L 85 38 L 79 44 L 71 49 L 63 50 L 54 49 L 46 45 L 40 39 L 37 31 L 35 22 L 37 13 L 40 6 L 46 0 L 54 -3 L 63 -5 L 71 -3 L 79 0 L 85 6 L 89 13 L 90 22 Z "
         id="path5951" />
    </g>
  </defs>
  <defs
     id="defs5959">
    <g
       id="nn_000a">
      <path
         d=" M 31 255 L 43 275 L 57 290 L 71 300 L 87 306 L 105 308 L 123 306 L 138 300 L 149 290 L 157 275 L 159 257 L 157 240 L 152 224 L 143 211 L 132 199 L 118 190 L 112 186 L 105 183 L 96 179 L 87 176 L 76 172 L 76 165 L 92 165 L 104 164 L 113 163 L 121 162 L 127 160 L 146 152 L 161 141 L 171 127 L 178 109 L 180 88 L 176 63 L 167 42 L 153 26 L 135 15 L 114 11 L 106 11 L 99 13 L 90 15 L 82 20 L 71 26 L 64 31 L 57 35 L 51 38 L 41 40 L 34 39 L 29 36 L 25 32 L 22 27 L 21 22 L 23 12 L 30 4 L 41 -1 L 57 -5 L 76 -6 L 103 -4 L 130 0 L 154 9 L 175 22 L 193 40 L 200 52 L 207 65 L 211 79 L 214 94 L 215 109 L 214 125 L 212 139 L 207 152 L 201 164 L 194 174 L 187 180 L 181 185 L 173 190 L 164 195 L 152 200 L 170 213 L 183 226 L 192 241 L 197 255 L 199 270 L 195 292 L 184 311 L 168 326 L 146 335 L 121 338 L 92 334 L 68 323 L 48 306 L 33 284 L 22 257 Z "
         id="path5956" />
    </g>
  </defs>
  <defs
     id="defs5964">
    <g
       id="nn_0009">
      <path
         d=" M 219 340 L 214 344 L 210 339 L 206 335 L 202 333 L 197 331 L 87 331 L 32 213 L 32 208 L 34 206 L 38 206 L 65 204 L 89 199 L 110 191 L 129 182 L 145 171 L 156 159 L 166 146 L 172 131 L 177 114 L 178 96 L 174 71 L 164 48 L 149 29 L 131 16 L 110 12 L 104 12 L 98 14 L 90 17 L 83 21 L 75 27 L 66 34 L 58 39 L 51 41 L 45 43 L 38 43 L 30 42 L 24 40 L 19 36 L 17 31 L 16 24 L 19 13 L 27 5 L 40 -1 L 58 -5 L 79 -6 L 99 -5 L 117 -2 L 134 1 L 149 8 L 164 17 L 182 33 L 196 51 L 206 71 L 211 95 L 213 122 L 213 137 L 211 150 L 207 162 L 202 174 L 195 185 L 178 205 L 159 220 L 137 232 L 108 241 L 70 249 L 90 291 L 188 291 L 192 292 L 198 294 L 200 296 L 201 298 Z "
         id="path5961" />
    </g>
  </defs>
  <path
     style="fill:none;stroke:#000000;stroke-width:2.52999997;stroke-miterlimit:4;stroke-dasharray:none;stroke-dashoffset:0"
     d="m 133.09516,131.71697 v 16.83959 16.8396 16.83959 16.8396 16.8396 16.83959 16.8396 16.83959 16.8396 16.83959 16.8396 16.83959 16.8396 16.8396 16.83959 16.8396 16.83959 16.8396 16.83959 16.8396 16.8396 16.83959 16.8396 16.83959 16.8396 16.83959 16.8396 16.83959 16.8396 16.8396 h 11.07327 -11.07327 15.66086 -15.66086 v -15.66086 15.66086 h 16.8396 16.8396 16.83959 16.8396 16.83959 16.8396 16.83959 16.8396 16.83959 16.8396 16.8396 16.83959 16.8396 16.83959 16.8396 16.83959 16.8396 16.8396 16.83959 16.8396 16.83959 16.8396 16.83959 16.8396 16.83959 16.8396 16.8396 16.83959 16.8396 16.83959 v -15.66086"
     id="path5966"
     inkscape:connector-curvature="0" />
  <path
     style="fill:none;stroke:#1d56ab;stroke-width:2.73861003;stroke-dasharray:none;stroke-dashoffset:38.35860062;stroke-opacity:1"
     d="m 133.065,636.935 0.484,-0.58 0.484,-0.557 0.485,-0.503 0.484,-0.459 0.484,-0.52 0.485,-0.481 0.484,-0.503 0.484,-0.484 0.485,-0.464 0.484,-0.634 0.484,-0.389 0.485,-0.636 0.484,-0.653 0.484,-0.528 0.485,-0.429 0.484,-0.722 0.485,-0.653 0.484,-0.536 0.484,-0.92 0.485,-0.455 0.484,-0.668 0.484,-0.4 0.485,-0.316 0.484,-0.512 0.484,-0.732 0.485,-0.601 0.484,-0.792 0.484,-0.729 0.485,-0.531 0.484,-0.744 0.485,-0.831 0.484,-0.555 0.484,-0.863 0.485,-0.355 0.484,-0.213 0.484,-0.419 0.485,-0.175 0.484,-0.235 0.484,-0.781 0.485,-0.14 0.484,-0.46 0.484,-0.699 0.485,-0.91 0.484,-0.446 0.485,-0.734 0.484,-0.414 0.484,-0.682 0.485,-0.539 0.484,-0.798 0.484,-0.669 0.485,-0.311 0.484,-0.853 0.484,-0.415 0.485,-0.9 0.484,-0.658 0.484,-0.571 0.485,-0.758 0.484,-0.531 0.484,-0.161 0.485,-0.595 0.484,-0.415 0.485,-0.56 0.484,0.018 0.484,-1.055 0.485,-0.516 0.484,-0.682 0.484,-0.179 0.485,-0.714 0.484,-1.073 0.484,0.062 0.485,-0.379 0.484,-0.503 0.484,-0.745 0.485,-0.606 0.484,-0.829 0.485,-0.596 0.484,-0.504 0.484,-0.689 0.485,-0.938 0.484,-1.02 0.484,-0.325 0.485,-0.285 0.484,-0.519 0.484,-0.205 0.485,-0.364 0.484,-0.507 0.484,-0.202 0.485,-0.736 0.484,-0.607 0.484,-0.196 0.485,-0.629 0.484,-0.071 0.485,-0.918 0.484,-0.388 0.484,-0.12 0.485,-0.082 0.484,-0.565 0.484,-0.397 0.485,-0.784 0.484,-0.44 0.484,-0.611 0.485,-1.353 0.484,-1.146 0.484,-0.742 0.485,-0.605 0.484,-0.255 0.485,-0.518 0.484,-0.178 0.484,0.093 0.485,-0.869 0.484,-0.59 0.484,-0.62 0.485,-0.617 0.484,-0.583 0.484,-0.616 0.485,-0.705 0.484,-0.114 0.484,0.21 0.485,-0.619 0.484,-0.406 0.485,-0.941 0.484,-0.382 0.484,-0.573 0.485,-0.8 0.484,-0.415 0.484,-0.853 0.485,-1.039 0.484,-0.736 0.484,-0.547 0.485,-0.744 0.484,0.242 0.484,-1.122 0.485,-0.391 0.484,-0.745 0.484,-0.904 0.485,-0.693 0.484,-0.443 0.485,-0.511 0.484,0.104 0.484,-0.282 0.485,0.093 0.484,-0.715 0.484,-0.42 0.485,-1.029 0.484,0.189 0.484,-0.733 0.485,-0.67 0.484,-0.386 0.484,-1.121 0.485,-0.842 0.484,0.546 0.485,-0.47 0.484,-0.81 0.484,-0.764 0.485,-1.018 0.484,-0.733 0.484,-1.452 0.485,-0.635 0.484,-0.857 0.484,-0.053 0.485,-0.67 0.484,-0.487 0.484,-0.097 0.485,-0.366 0.484,-0.011 0.484,-0.7 0.485,-1.056 0.484,-0.973 0.485,-0.86 0.484,-1.43 0.484,-0.235 0.485,-1.327 0.484,-1.111 0.484,-0.198 0.485,-0.688 0.484,-0.933 0.484,-1.498 0.485,-0.166 0.484,-0.741 0.484,0.035 0.485,-1.187 0.484,-0.332 0.485,0.222 0.484,-0.341 0.484,-1.584 0.485,-0.715 0.484,-0.788 0.484,-1.136 0.485,-0.314 0.484,-0.816 0.484,-0.678 0.485,-0.684 0.484,-1.129 0.484,-0.444 0.485,-0.003 0.484,-0.152 0.485,-1.01 0.484,-0.454 0.484,-1.294 0.485,-1.042 0.484,-0.286 0.484,-0.363 0.485,-0.6 0.484,-0.723 0.484,-0.673 0.485,0.289 0.484,-1.303 0.484,-0.835 0.485,-0.428 0.484,0.344 0.484,0.005 0.485,-1.157 0.484,-0.63 0.485,-0.646 0.484,-0.158 0.484,-0.301 0.485,-0.601 0.484,-0.871 0.484,-0.08 0.485,-0.173 0.484,0.114 0.484,-0.284 0.485,-0.624 0.484,-0.058 0.484,-0.502 0.485,-1.391 0.484,-0.362 0.485,0.108 0.484,-0.917 0.484,-0.583 0.485,-1.171 0.484,-0.355 0.484,0.064 0.485,-0.263 0.484,1.048 0.484,-0.603 0.485,-0.38 0.484,-0.505 0.484,-1.654 0.485,-1.506 0.484,-0.782 0.485,-0.692 0.484,-0.957 0.484,-0.349 0.485,-1.586 0.484,0.601 0.484,-0.237 0.485,0.188 0.484,-0.222 0.484,-1.098 0.485,-0.791 0.484,-0.78 0.484,0.135 0.485,-0.094 0.484,-0.668 0.484,-1.179 0.485,0.338 0.484,-1.235 0.485,-1.215 0.484,-0.545 0.484,-0.204 0.485,-1.151 0.484,-0.636 0.484,-0.779 0.485,-0.71 0.484,-0.288 0.484,-1.126 0.485,-0.034 0.484,-0.491 0.484,-0.95 0.485,-0.446 0.484,-0.607 0.485,-1.199 0.484,-0.299 0.484,-0.541 0.485,-0.739 0.484,-0.339 0.484,0.74 0.485,-1.032 0.484,-0.894 0.484,0.339 0.485,-0.745 0.484,-1.287 0.484,-0.927 0.485,-0.014 0.484,-0.836 0.484,-0.73 0.485,-0.374 0.484,-0.676 0.485,-0.248 0.484,-1.296 0.484,-2.011 0.485,0.515 0.484,-0.236 0.484,-1.068 0.485,-0.188 0.484,-0.411 0.484,0.024 0.485,-1.125 0.484,1.01 0.484,-0.995 0.485,0.115 0.484,0.22 0.485,-0.02 0.484,0.243 0.484,-0.871 0.485,-0.189 0.484,-0.048 0.484,-0.759 0.485,0.208 0.484,0.629 0.484,-0.973 0.485,0.237 0.484,-0.844 0.484,-0.047 0.485,-0.158 0.484,-0.021 0.485,-0.558 0.484,-1.324 0.484,0.616 0.485,0.556 0.484,0.061 0.484,-0.274 0.485,-0.824 0.484,-1.159 0.484,-0.617 0.485,0.299 0.484,-0.75 0.484,-0.658 0.485,-1.186 0.484,-1.018 0.484,-0.716 0.485,0.078 0.484,-0.409 0.485,-0.669 0.484,0.724 0.484,-0.389 0.485,0.032 0.484,-0.694 0.484,-1.374 0.485,-0.945 0.484,0.297 0.484,0.386 0.485,-0.568 0.484,-0.878 0.484,-0.47 0.485,-0.64 0.484,-1.308 0.485,-0.543 0.484,-1.022 0.484,0.015 0.485,-0.366 0.484,-0.367 0.484,-0.801 0.485,-0.303 0.484,-0.604 0.484,-0.647 0.485,0.082 0.484,0.023 0.484,-1.223 0.485,-0.439 0.484,-0.495 0.484,-0.71 0.485,-1.247 0.484,-0.038 0.485,0.558 0.484,-0.672 0.484,0.703 0.485,-1.284 0.484,-0.65 0.484,0.297 0.485,-0.102 0.484,-1.154 0.484,0.123 0.485,0.497 0.484,0.406 0.484,-0.756 0.485,-1.019 0.484,-0.532 0.485,0.648 0.484,-0.725 0.484,-0.66 0.485,0.034 0.484,-0.614 0.484,-0.394 0.485,-0.056 0.484,-0.197 0.484,-0.299 0.485,-1.286 0.484,1.045 0.484,-1.328 0.485,0.578 0.484,-0.02 0.485,0.091 0.484,-0.064 0.484,0.029 0.485,-0.16 0.484,0.958 0.484,-0.741 0.485,-0.317 0.484,-0.953 h 0.484 l 0.485,-0.892 0.484,1.408 0.484,-1.509 0.485,-0.165 0.484,-0.554 0.484,-0.9 0.485,-1.208 0.484,-0.309 0.485,-0.795 0.484,-0.694 0.484,-0.897 0.485,0.085 0.484,0.019 0.484,0.445 0.485,-0.515 0.484,0.099 0.484,-1.05 0.485,0.418 0.484,-1.666 0.484,-0.309 0.485,0.332 0.484,-1.456 0.485,-1.002 0.484,-0.266 0.484,-1.462 0.485,-1.137 0.484,-0.845 0.484,-0.854 0.485,-1.138 0.484,0.304 0.484,-0.322 0.485,-0.404 0.484,-1.057 0.484,-0.912 0.485,0.282 0.484,-1.068 0.485,-1.121 0.484,-0.844 0.484,-0.367 0.485,0.104 0.484,-1.257 0.484,-1.336 0.485,-1.025 0.484,-1.036 0.484,-0.905 0.485,-0.377 0.484,-0.549 0.484,-0.21 0.485,-0.351 0.484,-1.001 0.484,-0.051 0.485,-1.535 0.484,-0.1 0.485,-0.372 0.484,-0.739 0.484,-0.804 0.485,-1.355 0.484,-1.41 0.484,-0.767 0.485,0.255 0.484,-0.429 0.484,0.116 0.485,-0.753 0.484,0.147 0.484,0.308 0.485,-0.519 0.484,0.005 0.485,-0.581 0.484,-1.374 0.484,-0.658 0.485,-1.124 0.484,-1.169 0.484,-0.144 0.485,-1.015 0.484,-0.028 0.484,-0.66 0.485,-0.282 0.484,-0.598 0.484,-1.044 0.485,-0.897 0.484,-0.961 0.484,1.499 0.485,-0.717 0.484,0.106 0.485,0.205 0.484,-1.868 0.484,-1.131 0.485,0.213 0.484,0.937 0.484,-0.762 0.485,0.136 0.484,-1.548 0.484,0.57 0.485,-0.562 0.484,-0.997 0.484,0.466 0.485,1.566 0.484,-0.067 0.485,0.898 0.484,-0.118 0.484,-0.55 0.485,0.218 0.484,0.003 0.484,0.4 0.485,-0.591 0.484,-0.023 0.484,0.072 0.485,-0.167 0.484,-0.213 0.484,-1.212 0.485,1.078 0.484,0.686 0.485,-0.733 0.484,-1.457 0.484,-0.12 0.485,0.09 0.484,-1.468 0.484,0.342 0.485,-0.81 0.484,0.432 0.484,-1.405 0.485,-0.624 0.484,0.589 0.484,1.083 0.485,0.364 0.484,0.686 0.484,-0.889 0.485,-0.9 0.484,-1.05 0.485,-0.522 0.484,-0.83 0.484,-0.73 0.485,-0.323 0.484,-1.447 0.484,-0.363 0.485,0.871 0.484,-0.084 0.484,-0.554 0.485,-0.62 0.484,-0.334 0.484,0.54 0.485,-0.629 0.484,0.725 0.485,-1.239 0.484,0.183 0.484,0.256 0.485,-0.569 0.484,-0.306 0.484,-1.776 0.485,-0.533 0.484,-1.049 0.484,-0.433 0.485,-0.601 0.484,-0.662 0.484,-0.194 0.485,-0.014 0.484,-1.065 0.484,-1.628 0.485,-0.019 0.484,-1.682 0.485,-1.049 0.484,-0.548 0.484,-1.417 0.485,1.894 0.484,0.155 0.484,-1.709 0.485,-0.294 0.484,-0.383 0.484,-1.541 0.485,0.024 0.484,-1.071 0.484,-0.964 0.485,-1.511 0.484,-0.835 0.485,-1.262 0.484,-0.916 0.484,-0.461 0.485,-0.357 0.484,0.662 0.484,0.368 0.485,-0.825 0.484,-0.11 0.484,0.139 0.485,-0.682 0.484,-1.635 0.484,-0.628 0.485,-0.581 0.484,-0.798 0.485,-0.635 0.484,0.08 0.484,0.845 0.485,0.247 0.484,-0.233 0.484,-0.822 0.485,-0.051 0.484,-0.147 0.484,-0.528 0.485,0.675 0.484,0.946 0.484,0.174 0.485,-1.491 0.484,-0.533 0.484,-0.639 0.485,0.348 0.484,0.284 0.485,-0.631 0.484,0.258 0.484,-0.39 0.485,0.791 0.484,0.218 0.484,-0.072 0.485,0.696 0.484,1.028 0.484,0.12 0.485,0.087 0.484,-0.518 0.484,-0.156 0.485,-1.336 0.484,-0.348 0.485,-1.34 0.484,-0.307 0.484,-0.561 0.485,0.42 0.484,-0.021 0.484,-1.4 0.485,-0.138 0.484,-0.445 0.484,-1.007 0.485,-0.392 0.484,-0.433 0.484,-0.062 0.485,-0.968 0.484,0.175 0.485,-1.035 0.484,-0.019 0.484,-0.589 0.485,-2.119 0.484,1.602 0.484,0.15 0.485,-0.499 0.484,0.603 0.484,-0.828 0.485,-1.546 0.484,0.71 0.484,-0.869 0.485,0.041 0.484,0.463 0.484,-0.074 0.485,-0.179 0.484,-1.224 0.485,-1.817 0.484,-1.187 0.484,-0.345 0.485,-2.525 0.484,-1.004 0.484,-1.905 0.485,-1.484 0.484,-1.313 0.484,-0.144 0.485,-0.453 0.484,-0.368 0.484,-1.978 0.485,-0.159 0.484,-1.375 0.485,-0.934 0.484,-0.262 0.484,0.238 0.485,-1.24 0.484,0.794 0.484,-1.547 0.485,-1.178 0.484,-0.13 0.484,-2.558 0.485,-0.363 0.484,0.538 0.484,-0.588 0.485,-1.026 0.484,-0.2 0.484,-0.735 0.485,-0.993 0.484,1.332 0.485,0.494 0.484,-1.202 0.484,-0.776 0.485,1.251 0.484,-0.809 0.484,-2.259 0.485,0.081 0.484,0.276 0.484,-1.501 0.485,-1.29 0.484,-1.146 0.484,0.522 0.485,-1.829 0.484,-0.666 0.485,0.495 0.484,-1.467 0.484,-2.16 0.485,-0.452 0.484,-1.152 0.484,-0.744 0.485,0.244 0.484,-0.582 0.484,0.75 0.485,0.399 0.484,-2.896 0.484,-0.266 0.485,-0.781 0.484,-1.052 0.485,-0.688 0.484,-0.187 0.484,-0.784 0.485,-1.101 0.484,-1.378 0.484,-0.59 0.485,-1.76 0.484,-0.597 0.484,0.667 0.485,0.465 0.484,-0.769 0.484,-0.382 0.485,0.522 0.484,-0.74 0.484,-0.119 0.485,-0.746 0.484,-0.232 0.485,-0.324 0.484,0.138 0.484,-0.709 0.485,0.067 0.484,-0.12 0.484,-0.875 0.485,-1.053 0.484,-1.823 0.484,-0.355 0.485,-0.276 0.484,-1.092 0.484,0.12 0.485,-1.204 0.484,1.107 0.485,-1.068 0.484,-0.534 0.484,-0.172 0.485,-0.775 0.484,-0.887 0.484,0.18 0.485,0.057 0.484,-0.767 0.484,-1.623 0.485,0.222 0.484,-0.948 0.484,0.249 0.485,-0.26 0.484,-0.423 0.484,-0.673 0.485,-0.485 0.484,-0.063 0.485,0.169 0.484,-1.573 0.484,-0.596 0.485,-2.617 0.484,0.055 0.484,1.215 0.485,-0.17 0.484,0.05 0.484,-0.535 0.485,-0.887 0.484,0.364 0.484,0.026 0.485,1.191 0.484,-0.1 0.485,-0.361 0.484,0.634 0.484,-1.577 0.485,-0.933 0.484,-10e-4 0.484,-0.249 0.485,-0.289 0.484,0.292 0.484,0.097 0.485,-0.947 0.484,-1.342 0.484,-2.41 0.485,-0.885 0.484,-1.612 0.485,-1.481 0.484,0.228 0.484,-1.598 0.485,0.916 0.484,-0.349 0.484,-0.716 0.485,-0.396 0.484,-0.482 0.484,-1.815 0.485,1.48 0.484,-0.535 0.484,0.251 0.485,-0.574 0.484,-1.77 0.484,0.074 0.485,-0.709 0.484,1.406 0.485,0.602 0.484,-1.163 0.484,0.296 0.485,-1.019 0.484,-1.664 0.484,0.548 0.485,-0.156 0.484,-0.802 0.484,1.533 0.485,-1.314 0.484,-0.105 0.484,-2.104 0.485,-0.409 0.484,-0.247 0.485,0.037 0.484,0.255 0.484,0.084 0.485,-0.446 0.484,0.244 0.484,-1.053 0.485,0.501 0.484,-1.559 0.484,-1.013 0.485,-1.277 0.484,-0.909 0.484,-1.181 0.485,-1.351 0.484,-0.577 0.484,-1.153 0.485,0.488 0.484,-0.598 0.485,-1.257 0.484,-0.409 0.484,-0.649 0.485,0.167 0.484,-0.672 0.484,-1.57 0.485,-0.481 0.484,0.625 0.484,-0.792 0.485,-0.122 0.484,-0.586 0.484,1.136 0.485,-0.917 0.484,-0.656 0.485,-0.211 0.484,-0.708 0.484,-0.197 0.485,0.725 0.484,-0.617 0.484,-0.127 0.485,-0.792 0.484,-0.286 0.484,-1.218 0.485,-0.951 0.484,-1.333 0.484,-0.833 0.485,-1.372 0.484,1.394 0.484,-0.288 0.485,-1.973 0.484,-0.747 0.485,-1.096 0.484,-1.193 0.484,-1.805 0.485,-0.55 0.484,0.134 0.484,-0.903 0.485,0.842 0.484,0.097 0.484,-0.586 0.485,-0.111 0.484,1.693 0.484,-0.462 0.485,-0.795 0.484,-1.571 0.485,-0.026 0.484,-0.219 0.484,-1.116 0.485,-1.045 0.484,-0.092 0.484,0.77 0.485,-0.263 0.484,0.673 0.484,-0.687 0.485,-0.924 0.484,-0.873 0.484,-0.061 0.485,0.964 0.484,-1.894 0.484,-2.554 0.485,1.071 0.484,-0.867 0.485,-0.59 0.484,0.347 0.484,-0.711 0.485,0.197 0.484,0.219 0.484,-0.884 0.485,-0.541 0.484,-0.471 0.484,-1.117 0.485,-1.327 0.484,-0.646 0.485,-0.388 0.484,0.635 0.484,-1.149 0.485,0.933 0.484,-1.538 0.484,-0.064 0.485,-1.661 0.484,-0.832 0.484,0.662 0.485,-0.354 0.484,0.704 0.484,-0.613 0.485,-0.305 0.484,-0.753 0.484,0.53 0.485,-0.45 0.484,-0.379 0.485,-0.3 0.484,-2.419 0.484,-0.043 0.485,-0.202 0.484,0.067 0.484,-0.371 0.485,-2.713 0.484,0.255 0.484,-0.876 0.485,-0.609 0.484,-0.747 0.484,-0.074 0.485,-1.815 0.484,-1.596 0.485,-0.586 0.484,-0.975 0.484,0.085 0.485,0.03 0.484,-2.136 0.484,0.932 0.485,0.199 0.484,0.061 0.484,1.149 0.485,-2.027 0.484,-0.356 0.484,-0.934 0.485,-0.546 0.484,0.36 0.484,-0.431 0.485,0.451 0.484,0.366 0.485,0.181 0.484,0.11 0.484,-1.022 0.485,0.137 0.484,1.029 0.484,-0.517 0.485,0.291 0.484,-0.258 0.484,-1.012 0.485,-0.398 0.484,-1.086 0.484,-0.616 0.485,0.566 0.484,0.309 0.485,-0.372 0.484,-0.255 0.484,0.241 0.485,-0.705 0.484,1.641 0.484,0.409 0.485,-1.247 0.484,-0.637 0.484,-0.053 0.485,-0.014 0.484,-1.847 0.484,0.002 0.485,-0.091 0.484,-0.865 0.484,-1.751 0.485,-1.296 0.484,-2.642 0.485,-0.827 0.484,-1.945 0.484,-0.163 0.485,-3.441 0.484,0.083 0.484,-1.553 0.485,0.157 0.484,2.072 0.484,-0.351 0.485,-1.213 0.484,-2.022 0.484,-2.357"
     id="path6254"
     inkscape:connector-curvature="0" />
  <path
     style="fill:none;stroke:#000000;stroke-width:1.36931002;stroke-dasharray:none;stroke-dashoffset:9.43360043"
     d="m 229.839,616.935 v 0 0"
     id="path6266"
     inkscape:connector-curvature="0" />
  <path
     style="fill:none;stroke:#000000;stroke-width:1.36931002;stroke-dasharray:none;stroke-dashoffset:1.66682994"
     d="m 326.613,616.935 v 0 0"
     id="path6274"
     inkscape:connector-curvature="0" />
  <path
     style="fill:none;stroke:#000000;stroke-width:1.36931002;stroke-dasharray:none;stroke-dashoffset:15.80900002"
     d="m 423.387,616.935 v 0 0"
     id="path6282"
     inkscape:connector-curvature="0" />
  <path
     style="fill:none;stroke:#000000;stroke-width:1.36931002;stroke-dasharray:none;stroke-dashoffset:8.0421896"
     d="m 520.161,616.935 v 0 0"
     id="path6290"
     inkscape:connector-curvature="0" />
  <path
     style="fill:none;stroke:#000000;stroke-width:1.36931002;stroke-dasharray:none;stroke-dashoffset:0.275417"
     d="m 616.935,616.935 v 0 0"
     id="path6298"
     inkscape:connector-curvature="0" />
  <path
     style="fill:none;stroke:#000000;stroke-width:1.36931002;stroke-dasharray:none;stroke-dashoffset:8.51572037"
     d="m 133.065,566.271 v 0 0"
     id="path6306"
     inkscape:connector-curvature="0" />
  <path
     style="fill:none;stroke:#000000;stroke-width:1.36931002;stroke-dasharray:none;stroke-dashoffset:0.74894297"
     d="m 133.065,515.607 v 0 0"
     id="path6314"
     inkscape:connector-curvature="0" />
  <path
     style="fill:none;stroke:#000000;stroke-width:1.36931002;stroke-dasharray:none;stroke-dashoffset:14.89109993"
     d="m 133.065,464.943 v 0 0"
     id="path6322"
     inkscape:connector-curvature="0" />
  <path
     style="fill:none;stroke:#000000;stroke-width:1.36931002;stroke-dasharray:none;stroke-dashoffset:7.1243"
     d="m 133.065,414.279 v 0 0"
     id="path6330"
     inkscape:connector-curvature="0" />
  <path
     style="fill:none;stroke:#000000;stroke-width:1.36931002;stroke-dasharray:none;stroke-dashoffset:21.26639938"
     d="m 133.065,363.614 v 0 0"
     id="path6338"
     inkscape:connector-curvature="0" />
  <path
     style="fill:none;stroke:#000000;stroke-width:1.36931002;stroke-dasharray:none;stroke-dashoffset:13.49969959"
     d="m 133.065,312.95 v 0 0"
     id="path6346"
     inkscape:connector-curvature="0" />
  <path
     style="fill:none;stroke:#000000;stroke-width:1.36931002;stroke-dasharray:none;stroke-dashoffset:5.73289013"
     d="m 133.065,262.286 v 0 0"
     id="path6354"
     inkscape:connector-curvature="0" />
  <path
     style="fill:none;stroke:#000000;stroke-width:1.36931002;stroke-dasharray:none;stroke-dashoffset:19.875"
     d="m 133.065,211.622 v 0 0"
     id="path6362"
     inkscape:connector-curvature="0" />
  <path
     style="fill:none;stroke:#000000;stroke-width:1.36931002;stroke-dasharray:none;stroke-dashoffset:12.10820007"
     d="m 133.065,160.958 v 0 0"
     id="path6370"
     inkscape:connector-curvature="0" />
  <text
     xml:space="preserve"
     style="font-style:normal;font-variant:normal;font-weight:normal;font-stretch:normal;font-size:50.87321854px;line-height:67.83095551px;font-family:'Liberation Serif';-inkscape-font-specification:'Liberation Serif, Normal';text-align:center;letter-spacing:0px;word-spacing:0px;writing-mode:lr-tb;text-anchor:middle;fill:#3d3d3d;fill-opacity:1;stroke:none;stroke-width:2.71323824px;stroke-linecap:butt;stroke-linejoin:miter;stroke-opacity:1"
     x="-380.15997"
     y="108.1183"
     id="text6746"
     transform="rotate(-90.244462)"
     inkscape:transform-center-x="-10.112226"
     inkscape:transform-center-y="3.3707421"><tspan
       sodipodi:role="line"
       id="tspan6744"
       x="-380.15997"
       y="108.1183"
       style="font-style:normal;font-variant:normal;font-weight:normal;font-stretch:normal;font-size:33.33333206px;font-family:'Liberation Sans';-inkscape-font-specification:'Liberation Sans';fill:#3d3d3d;fill-opacity:1;stroke-width:2.71323824px">MSD</tspan></text>
  <text
     inkscape:transform-center-y="10.112242"
     inkscape:transform-center-x="3.3707494"
     transform="rotate(-0.244462)"
     id="text6750"
     y="676.57379"
     x="383.62146"
     style="font-style:normal;font-variant:normal;font-weight:normal;font-stretch:normal;font-size:50.87321854px;line-height:67.83095551px;font-family:'Liberation Serif';-inkscape-font-specification:'Liberation Serif, Normal';text-align:center;letter-spacing:0px;word-spacing:0px;writing-mode:lr-tb;text-anchor:middle;fill:#3c3c3c;fill-opacity:1;stroke:none;stroke-width:2.71323824px;stroke-linecap:butt;stroke-linejoin:miter;stroke-opacity:1"
     xml:space="preserve"><tspan
       style="font-style:normal;font-variant:normal;font-weight:normal;font-stretch:normal;font-size:33.33333206px;font-family:'Liberation Sans';-inkscape-font-specification:'Liberation Sans';fill:#3c3c3c;fill-opacity:1;stroke-width:2.71323824px"
       y="676.57379"
       x="383.62146"
       id="tspan6748"
       sodipodi:role="line">time</tspan></text>
  <path
     style="fill:none;fill-rule:evenodd;stroke:#000000;stroke-width:1px;stroke-linecap:butt;stroke-linejoin:miter;stroke-opacity:1"
     d="m 133.09516,131.71697 h 14.0844"
     id="path6752"
     inkscape:connector-curvature="0" />
  <text
     inkscape:transform-center-y="10.112227"
     inkscape:transform-center-x="3.3707495"
     transform="rotate(-0.244462)"
     id="text6760"
     y="109.61925"
     x="400.22507"
     style="font-style:normal;font-variant:normal;font-weight:normal;font-stretch:normal;font-size:46.66666412px;line-height:67.83095551px;font-family:'Liberation Serif';-inkscape-font-specification:'Liberation Serif, Normal';text-align:center;letter-spacing:0px;word-spacing:0px;writing-mode:lr-tb;text-anchor:middle;fill:#3d3d3d;fill-opacity:1;stroke:none;stroke-width:2.71323824px;stroke-linecap:butt;stroke-linejoin:miter;stroke-opacity:1"
     xml:space="preserve"><tspan
       style="font-style:normal;font-variant:normal;font-weight:normal;font-stretch:normal;font-size:46.66666412px;font-family:'Liberation Sans';-inkscape-font-specification:'Liberation Sans';fill:#3d3d3d;fill-opacity:1;stroke-width:2.71323824px"
       y="109.61925"
       x="400.22507"
       id="tspan6758"
       sodipodi:role="line">Diffusion, α = 1</tspan></text>
</svg>
