<?xml version="1.0" standalone="no"?>
<!DOCTYPE svg PUBLIC "-//W3C//DTD SVG 20000303 Stylable//EN" "http://www.w3.org/TR/2000/03/WD-SVG-20000303/DTD/svg-20000303-stylable.dtd">
<svg width="750" height="750" xmlns="http://www.w3.org/2000/svg" xmlns:xlink="http://www.w3.org/1999/xlink">
<!--Created by MathGL library-->
<!--Title: -->
<!--CreationDate: Wed Jan 18 02:11:52 2017
-->

<defs><g id="nn_0000"><path d="	M 238 165 L 232 222 L 218 270 L 194 307 L 164 330 L 127 338 L 84 329 L 52 304 L 29 266 L 16 220 L 12 168 L 16 118 L 27 71 L 48 31 L 80 3 L 125 -6 L 168 2 L 200 29 L 222 67 L 234 114 L 238 165 Z
	M 190 162 L 187 108 L 179 65 L 166 33 L 148 13 L 125 6 L 102 13 L 84 33 L 71 65 L 63 109 L 60 165 L 63 220 L 71 265 L 84 298 L 101 318 L 124 325 L 148 318 L 166 298 L 179 265 L 187 219 L 190 162 Z
"/></g></defs>
<defs><g id="nn_0001"><path d="	M 237 69 L 230 71 L 221 57 L 212 48 L 203 42 L 193 39 L 182 38 L 65 38 L 147 126 L 171 153 L 189 179 L 202 203 L 209 226 L 211 250 L 207 278 L 195 302 L 176 321 L 150 334 L 119 338 L 86 333 L 59 320 L 39 299 L 24 271 L 15 238 L 26 236 L 38 262 L 50 280 L 63 292 L 79 299 L 99 301 L 123 298 L 142 289 L 156 275 L 165 255 L 169 230 L 166 205 L 159 181 L 146 155 L 128 129 L 103 100 L 15 6 L 15 0 L 210 0 Z
"/></g></defs>
<defs><g id="nn_0002"><path d="	M 237 84 L 237 116 L 185 116 L 185 338 L 163 338 L 6 116 L 6 84 L 146 84 L 146 0 L 185 0 L 185 84 Z
	M 146 116 L 26 116 L 146 287 Z
"/></g></defs>
<defs><g id="nn_0003"><path d="	M 223 342 L 185 337 L 152 329 L 123 317 L 97 300 L 71 277 L 52 254 L 37 229 L 26 201 L 19 171 L 17 140 L 18 118 L 21 98 L 26 78 L 33 60 L 41 44 L 53 26 L 68 12 L 86 1 L 106 -4 L 129 -6 L 148 -5 L 166 0 L 182 7 L 196 17 L 209 30 L 218 43 L 225 57 L 230 73 L 233 91 L 234 109 L 230 145 L 217 174 L 198 196 L 172 209 L 140 214 L 127 213 L 115 211 L 103 207 L 90 201 L 76 191 L 89 234 L 111 270 L 142 300 L 180 321 L 224 334 Z
	M 189 94 L 187 65 L 180 41 L 169 23 L 154 11 L 134 7 L 109 13 L 89 30 L 75 56 L 66 91 L 64 133 L 67 157 L 76 173 L 89 184 L 105 189 L 122 191 L 146 187 L 165 175 L 179 156 L 187 128 L 189 94 Z
"/></g></defs>
<defs><g id="nn_0004"><path d="	M 223 78 L 220 100 L 213 121 L 199 141 L 177 162 L 145 185 L 171 200 L 190 215 L 203 229 L 210 246 L 212 267 L 208 289 L 197 309 L 179 324 L 156 334 L 128 338 L 97 335 L 70 324 L 49 308 L 36 287 L 31 260 L 33 242 L 38 225 L 49 208 L 67 189 L 93 166 L 66 145 L 47 127 L 35 111 L 30 94 L 28 75 L 32 48 L 45 25 L 66 8 L 92 -2 L 124 -6 L 157 -2 L 185 8 L 205 26 L 218 49 L 223 78 Z
	M 177 267 L 176 249 L 171 234 L 162 220 L 149 207 L 131 195 L 107 210 L 90 225 L 77 240 L 70 257 L 68 275 L 71 292 L 78 305 L 89 316 L 104 322 L 123 324 L 142 322 L 157 314 L 168 302 L 175 286 L 177 267 Z
	M 136 136 L 154 122 L 167 109 L 177 95 L 183 79 L 185 62 L 182 44 L 175 29 L 163 17 L 148 10 L 129 7 L 108 10 L 91 19 L 77 34 L 69 54 L 66 79 L 67 97 L 71 113 L 79 128 L 90 142 L 106 156 Z
"/></g></defs>
<defs><g id="nn_0005"><path d="	M 197 0 L 197 7 L 178 8 L 164 12 L 155 18 L 151 27 L 150 38 L 150 336 L 145 338 L 55 292 L 55 286 L 69 291 L 74 293 L 84 295 L 88 296 L 92 296 L 97 295 L 101 293 L 104 288 L 106 281 L 107 272 L 107 47 L 105 33 L 100 22 L 92 14 L 78 10 L 59 7 L 59 0 Z
"/></g></defs>
<defs><g id="nn_0006"><path d="	M 299 11 L 184 126 L 299 242 L 276 265 L 160 150 L 45 265 L 22 242 L 137 126 L 22 11 L 45 -11 L 160 103 L 276 -11 Z
"/></g></defs>
<defs><g id="nn_0007"><path d="	M 31 255 L 43 275 L 57 290 L 71 300 L 87 306 L 105 308 L 123 306 L 138 300 L 149 290 L 157 275 L 159 257 L 157 240 L 152 224 L 143 211 L 132 199 L 118 190 L 112 186 L 105 183 L 96 179 L 87 176 L 76 172 L 76 165 L 92 165 L 104 164 L 113 163 L 121 162 L 127 160 L 146 152 L 161 141 L 171 127 L 178 109 L 180 88 L 176 63 L 167 42 L 153 26 L 135 15 L 114 11 L 106 11 L 99 13 L 90 15 L 82 20 L 71 26 L 64 31 L 57 35 L 51 38 L 41 40 L 34 39 L 29 36 L 25 32 L 22 27 L 21 22 L 23 12 L 30 4 L 41 -1 L 57 -5 L 76 -6 L 103 -4 L 130 0 L 154 9 L 175 22 L 193 40 L 200 52 L 207 65 L 211 79 L 214 94 L 215 109 L 214 125 L 212 139 L 207 152 L 201 164 L 194 174 L 187 180 L 181 185 L 173 190 L 164 195 L 152 200 L 170 213 L 183 226 L 192 241 L 197 255 L 199 270 L 195 292 L 184 311 L 168 326 L 146 335 L 121 338 L 92 334 L 68 323 L 48 306 L 33 284 L 22 257 Z
"/></g></defs>
<defs><g id="nn_0008"><path d="	M 310 110 L 310 143 L 32 143 L 32 110 Z
"/></g></defs>
<defs><g id="nn_0009"><path d="	M 90 22 L 89 30 L 85 38 L 79 44 L 71 49 L 63 50 L 54 49 L 46 45 L 40 39 L 37 31 L 35 22 L 37 13 L 40 6 L 46 0 L 54 -3 L 63 -5 L 71 -3 L 79 0 L 85 6 L 89 13 L 90 22 Z
"/></g></defs>
<defs><g id="nn_000a"><path d="	M 219 340 L 214 344 L 210 339 L 206 335 L 202 333 L 197 331 L 87 331 L 32 213 L 32 208 L 34 206 L 38 206 L 65 204 L 89 199 L 110 191 L 129 182 L 145 171 L 156 159 L 166 146 L 172 131 L 177 114 L 178 96 L 174 71 L 164 48 L 149 29 L 131 16 L 110 12 L 104 12 L 98 14 L 90 17 L 83 21 L 75 27 L 66 34 L 58 39 L 51 41 L 45 43 L 38 43 L 30 42 L 24 40 L 19 36 L 17 31 L 16 24 L 19 13 L 27 5 L 40 -1 L 58 -5 L 79 -6 L 99 -5 L 117 -2 L 134 1 L 149 8 L 164 17 L 182 33 L 196 51 L 206 71 L 211 95 L 213 122 L 213 137 L 211 150 L 207 162 L 202 174 L 195 185 L 178 205 L 159 220 L 137 232 L 108 241 L 70 249 L 90 291 L 188 291 L 192 292 L 198 294 L 200 296 L 201 298 Z
"/></g></defs>
<g fill="none" stroke="none" stroke-width="0.5">
<g stroke="#000000" stroke-dasharray="" stroke-dashoffset="0" stroke-width="1.36931"><path d=" M 133.065 133.065 L 133.065 149.194 L 133.065 165.323 L 133.065 181.452 L 133.065 197.581 L 133.065 213.71 L 133.065 229.839 L 133.065 245.968 L 133.065 262.097 L 133.065 278.226 L 133.065 294.355 L 133.065 310.484 L 133.065 326.613 L 133.065 342.742 L 133.065 358.871 L 133.065 375 L 133.065 391.129 L 133.065 407.258 L 133.065 423.387 L 133.065 439.516 L 133.065 455.645 L 133.065 471.774 L 133.065 487.903 L 133.065 504.032 L 133.065 520.161 L 133.065 536.29 L 133.065 552.419 L 133.065 568.548 L 133.065 584.677 L 133.065 600.806 L 133.065 616.935 L 143.671 616.935 L 133.065 616.935 L 148.065 616.935 L 133.065 616.935 L 133.065 601.935 L 133.065 616.935 L 149.194 616.935 L 165.323 616.935 L 181.452 616.935 L 197.581 616.935 L 213.71 616.935 L 229.839 616.935 L 245.968 616.935 L 262.097 616.935 L 278.226 616.935 L 294.355 616.935 L 310.484 616.935 L 326.613 616.935 L 342.742 616.935 L 358.871 616.935 L 375 616.935 L 391.129 616.935 L 407.258 616.935 L 423.387 616.935 L 439.516 616.935 L 455.645 616.935 L 471.774 616.935 L 487.903 616.935 L 504.032 616.935 L 520.161 616.935 L 536.29 616.935 L 552.419 616.935 L 568.548 616.935 L 584.677 616.935 L 600.806 616.935 L 616.935 616.935 L 616.935 601.935"/> </g>
<g stroke="#000000" stroke-dasharray="" stroke-dashoffset="3.94711" stroke-width="1.36931"><path d=" M 229.839 606.329 L 229.839 616.935 L 229.839 601.935"/> </g>
<g stroke="#000000" stroke-dasharray="" stroke-dashoffset="13.9471" stroke-width="1.36931"><path d=" M 326.613 606.329 L 326.613 616.935 L 326.613 601.935"/> </g>
<g stroke="#000000" stroke-dasharray="" stroke-dashoffset="2.03821" stroke-width="1.36931"><path d=" M 423.387 606.329 L 423.387 616.935 L 423.387 601.935"/> </g>
<g stroke="#000000" stroke-dasharray="" stroke-dashoffset="12.0382" stroke-width="1.36931"><path d=" M 520.161 606.329 L 520.161 616.935 L 520.161 601.935"/> </g>
<g stroke="#000000" stroke-dasharray="" stroke-dashoffset="10.1293" stroke-width="1.36931"><path d=" M 133.065 606.329 L 133.065 616.935 L 133.065 606.329"/> </g>
<g stroke="#000000" stroke-dasharray="" stroke-dashoffset="17.2004" stroke-width="1.36931"><path d=" M 181.452 616.935 L 181.452 606.329"/> </g>
<g stroke="#000000" stroke-dasharray="" stroke-dashoffset="9.4336" stroke-width="1.36931"><path d=" M 278.226 616.935 L 278.226 606.329"/> </g>
<g stroke="#000000" stroke-dasharray="" stroke-dashoffset="1.66683" stroke-width="1.36931"><path d=" M 375 616.935 L 375 606.329"/> </g>
<g stroke="#000000" stroke-dasharray="" stroke-dashoffset="15.809" stroke-width="1.36931"><path d=" M 471.774 616.935 L 471.774 606.329"/> </g>
<g stroke="#000000" stroke-dasharray="" stroke-dashoffset="8.04219" stroke-width="1.36931"><path d=" M 568.548 616.935 L 568.548 606.329"/> </g>
<g stroke="#000000" stroke-dasharray="" stroke-dashoffset="15.1133" stroke-width="1.36931"><path d=" M 616.935 616.935 L 616.935 606.329"/> </g>
<g stroke="#000000" stroke-dasharray="" stroke-dashoffset="6.84703" stroke-width="1.36931"><path d=" M 143.671 559.255 L 133.065 559.255 L 148.065 559.255"/> </g>
<g stroke="#000000" stroke-dasharray="" stroke-dashoffset="16.847" stroke-width="1.36931"><path d=" M 143.671 501.575 L 133.065 501.575 L 148.065 501.575"/> </g>
<g stroke="#000000" stroke-dasharray="" stroke-dashoffset="4.93813" stroke-width="1.36931"><path d=" M 143.671 443.895 L 133.065 443.895 L 148.065 443.895"/> </g>
<g stroke="#000000" stroke-dasharray="" stroke-dashoffset="14.9381" stroke-width="1.36931"><path d=" M 143.671 386.214 L 133.065 386.214 L 148.065 386.214"/> </g>
<g stroke="#000000" stroke-dasharray="" stroke-dashoffset="3.02923" stroke-width="1.36931"><path d=" M 143.671 328.534 L 133.065 328.534 L 148.065 328.534"/> </g>
<g stroke="#000000" stroke-dasharray="" stroke-dashoffset="13.0292" stroke-width="1.36931"><path d=" M 143.671 270.854 L 133.065 270.854 L 148.065 270.854"/> </g>
<g stroke="#000000" stroke-dasharray="" stroke-dashoffset="1.12032" stroke-width="1.36931"><path d=" M 143.671 213.174 L 133.065 213.174 L 148.065 213.174"/> </g>
<g stroke="#000000" stroke-dasharray="" stroke-dashoffset="11.1203" stroke-width="1.36931"><path d=" M 143.671 155.493 L 133.065 155.493 L 148.065 155.493"/> </g>
<g stroke="#000000" stroke-dasharray="" stroke-dashoffset="6.28249" stroke-width="1.36931"><path d=" M 133.065 588.095 L 143.671 588.095"/> </g>
<g stroke="#000000" stroke-dasharray="" stroke-dashoffset="20.4246" stroke-width="1.36931"><path d=" M 133.065 530.415 L 143.671 530.415"/> </g>
<g stroke="#000000" stroke-dasharray="" stroke-dashoffset="12.6578" stroke-width="1.36931"><path d=" M 133.065 472.735 L 143.671 472.735"/> </g>
<g stroke="#000000" stroke-dasharray="" stroke-dashoffset="4.89107" stroke-width="1.36931"><path d=" M 133.065 415.055 L 143.671 415.055"/> </g>
<g stroke="#000000" stroke-dasharray="" stroke-dashoffset="19.0332" stroke-width="1.36931"><path d=" M 133.065 357.374 L 143.671 357.374"/> </g>
<g stroke="#000000" stroke-dasharray="" stroke-dashoffset="11.2664" stroke-width="1.36931"><path d=" M 133.065 299.694 L 143.671 299.694"/> </g>
<g stroke="#000000" stroke-dasharray="" stroke-dashoffset="3.49966" stroke-width="1.36931"><path d=" M 133.065 242.014 L 143.671 242.014"/> </g>
<g stroke="#000000" stroke-dasharray="" stroke-dashoffset="17.6418" stroke-width="1.36931"><path d=" M 133.065 184.334 L 143.671 184.334"/> </g>
<g transform="translate(133.065,655.589) scale(0.0744,-0.0744) rotate(0)" fill="#000000"><use x="-125" y="-0" xlink:href="#nn_0000"/></g>
<g transform="translate(229.839,655.589) scale(0.0744,-0.0744) rotate(0)" fill="#000000"><use x="-125" y="-0" xlink:href="#nn_0001"/></g>
<g transform="translate(326.613,655.589) scale(0.0744,-0.0744) rotate(0)" fill="#000000"><use x="-125" y="-0" xlink:href="#nn_0002"/></g>
<g transform="translate(423.387,655.589) scale(0.0744,-0.0744) rotate(0)" fill="#000000"><use x="-125" y="-0" xlink:href="#nn_0003"/></g>
<g transform="translate(520.161,655.589) scale(0.0744,-0.0744) rotate(0)" fill="#000000"><use x="-125" y="-0" xlink:href="#nn_0004"/></g>
<g transform="translate(616.935,655.589) scale(0.0744,-0.0744) rotate(0)" fill="#000000"><use x="-250" y="-0" xlink:href="#nn_0005"/></g>
<g transform="translate(616.935,655.589) scale(0.0744,-0.0744) rotate(0)" fill="#000000"><use x="0" y="-0" xlink:href="#nn_0000"/></g>
<g transform="translate(689.516,655.589) scale(0.0744,-0.0744) rotate(0)" fill="#000000"><use x="-401.5" y="-0" xlink:href="#nn_0006"/></g>
<g transform="translate(689.516,655.589) scale(0.0744,-0.0744) rotate(0)" fill="#000000"><use x="-82.5" y="-0" xlink:href="#nn_0005"/></g>
<g transform="translate(689.516,655.589) scale(0.0744,-0.0744) rotate(0)" fill="#000000"><use x="167.5" y="-0" xlink:href="#nn_0000"/></g>
<g transform="translate(689.516,655.589) scale(0.0447,-0.0447) rotate(0)" fill="#000000"><use x="695.833" y="200" xlink:href="#nn_0007"/></g>
<g transform="translate(120.949,616.935) scale(0.0744,-0.0744) rotate(90)" fill="#000000"><use x="-125" y="-0" xlink:href="#nn_0000"/></g>
<g transform="translate(120.949,559.255) scale(0.0744,-0.0744) rotate(90)" fill="#000000"><use x="-250" y="-0" xlink:href="#nn_0001"/></g>
<g transform="translate(120.949,559.255) scale(0.0744,-0.0744) rotate(90)" fill="#000000"><use x="0" y="-0" xlink:href="#nn_0000"/></g>
<g transform="translate(120.949,501.575) scale(0.0744,-0.0744) rotate(90)" fill="#000000"><use x="-250" y="-0" xlink:href="#nn_0002"/></g>
<g transform="translate(120.949,501.575) scale(0.0744,-0.0744) rotate(90)" fill="#000000"><use x="0" y="-0" xlink:href="#nn_0000"/></g>
<g transform="translate(120.949,443.895) scale(0.0744,-0.0744) rotate(90)" fill="#000000"><use x="-250" y="-0" xlink:href="#nn_0003"/></g>
<g transform="translate(120.949,443.895) scale(0.0744,-0.0744) rotate(90)" fill="#000000"><use x="0" y="-0" xlink:href="#nn_0000"/></g>
<g transform="translate(120.949,386.214) scale(0.0744,-0.0744) rotate(90)" fill="#000000"><use x="-250" y="-0" xlink:href="#nn_0004"/></g>
<g transform="translate(120.949,386.214) scale(0.0744,-0.0744) rotate(90)" fill="#000000"><use x="0" y="-0" xlink:href="#nn_0000"/></g>
<g transform="translate(120.949,328.534) scale(0.0744,-0.0744) rotate(90)" fill="#000000"><use x="-375" y="-0" xlink:href="#nn_0005"/></g>
<g transform="translate(120.949,328.534) scale(0.0744,-0.0744) rotate(90)" fill="#000000"><use x="-125" y="-0" xlink:href="#nn_0000"/></g>
<g transform="translate(120.949,328.534) scale(0.0744,-0.0744) rotate(90)" fill="#000000"><use x="125" y="-0" xlink:href="#nn_0000"/></g>
<g transform="translate(120.949,270.854) scale(0.0744,-0.0744) rotate(90)" fill="#000000"><use x="-375" y="-0" xlink:href="#nn_0005"/></g>
<g transform="translate(120.949,270.854) scale(0.0744,-0.0744) rotate(90)" fill="#000000"><use x="-125" y="-0" xlink:href="#nn_0001"/></g>
<g transform="translate(120.949,270.854) scale(0.0744,-0.0744) rotate(90)" fill="#000000"><use x="125" y="-0" xlink:href="#nn_0000"/></g>
<g transform="translate(120.949,213.174) scale(0.0744,-0.0744) rotate(90)" fill="#000000"><use x="-375" y="-0" xlink:href="#nn_0005"/></g>
<g transform="translate(120.949,213.174) scale(0.0744,-0.0744) rotate(90)" fill="#000000"><use x="-125" y="-0" xlink:href="#nn_0002"/></g>
<g transform="translate(120.949,213.174) scale(0.0744,-0.0744) rotate(90)" fill="#000000"><use x="125" y="-0" xlink:href="#nn_0000"/></g>
<g transform="translate(120.949,155.493) scale(0.0744,-0.0744) rotate(90)" fill="#000000"><use x="-375" y="-0" xlink:href="#nn_0005"/></g>
<g transform="translate(120.949,155.493) scale(0.0744,-0.0744) rotate(90)" fill="#000000"><use x="-125" y="-0" xlink:href="#nn_0003"/></g>
<g transform="translate(120.949,155.493) scale(0.0744,-0.0744) rotate(90)" fill="#000000"><use x="125" y="-0" xlink:href="#nn_0000"/></g>
<g stroke="#113366" stroke-dasharray="" stroke-dashoffset="19.75" stroke-width="2.73861"><path d=" M 133.065 616.935 L 133.549 604.788 L 134.033 599.537 L 134.518 594.606 L 135.002 590.8 L 135.486 587.21 L 135.971 584.539 L 136.455 581.369 L 136.939 578.38 L 137.424 576.152 L 137.908 573.314 L 138.392 571.033 L 138.877 568.959 L 139.361 567.518 L 139.845 566.106 L 140.33 565.385 L 140.814 563.268 L 141.299 561.45 L 141.783 559.749 L 142.267 557.664 L 142.752 556.363 L 143.236 553.983 L 143.72 552.36 L 144.205 549.964 L 144.689 549.272 L 145.173 548.234 L 145.658 546.721 L 146.142 546.224 L 146.626 545.568 L 147.111 545.599 L 147.595 544.06 L 148.08 543.347 L 148.564 542.088 L 149.048 541.54 L 149.533 539.971 L 150.017 538.873 L 150.501 537.154 L 150.986 536.111 L 151.47 534.599 L 151.954 533.934 L 152.439 533.613 L 152.923 532.09 L 153.407 530.281 L 153.892 529.648 L 154.376 528.269 L 154.861 526.862 L 155.345 525.76 L 155.829 524.709 L 156.314 523.423 L 156.798 522.311 L 157.282 521.239 L 157.767 520.038 L 158.251 518.872 L 158.735 518.196 L 159.22 517.219 L 159.704 515.37 L 160.188 514.789 L 160.673 513.76 L 161.157 512.802 L 161.641 511.391 L 162.126 510.671 L 162.61 509.772 L 163.095 508.418 L 163.579 507.262 L 164.063 506.394 L 164.548 504.827 L 165.032 503.093 L 165.516 502.859 L 166.001 501.779 L 166.485 501.361 L 166.969 500.472 L 167.454 497.896 L 167.938 497.733 L 168.422 496.993 L 168.907 495.824 L 169.391 495.059 L 169.876 494.252 L 170.36 493.216 L 170.844 492.617 L 171.329 491.315 L 171.813 489.666 L 172.297 489.761 L 172.782 488.707 L 173.266 487.639 L 173.75 486.212 L 174.235 485.833 L 174.719 485.175 L 175.203 484.674 L 175.688 483.526 L 176.172 482.47 L 176.656 482.238 L 177.141 480.659 L 177.625 479.53 L 178.11 480.442 L 178.594 479.209 L 179.078 478.657 L 179.563 476.853 L 180.047 475.914 L 180.531 476.028 L 181.016 475.437 L 181.5 474.035 L 181.984 473.871 L 182.469 473.319 L 182.953 472.421 L 183.437 470.596 L 183.922 470.433 L 184.406 470.717 L 184.891 469.62 L 185.375 469.419 L 185.859 469.37 L 186.344 468.592 L 186.828 467.675 L 187.312 467.298 L 187.797 466.249 L 188.281 465.409 L 188.765 464.891 L 189.25 463.587 L 189.734 462.597 L 190.218 461.992 L 190.703 460.75 L 191.187 460.66 L 191.672 459.684 L 192.156 458.317 L 192.64 457.76 L 193.125 456.653 L 193.609 456.159 L 194.093 455.503 L 194.578 454.224 L 195.062 454.151 L 195.546 453.503 L 196.031 453.255 L 196.515 452.772 L 196.999 451.77 L 197.484 450.94 L 197.968 450.292 L 198.452 448.508 L 198.937 447.692 L 199.421 446.359 L 199.906 446.422 L 200.39 446.152 L 200.874 444.451 L 201.359 443.705 L 201.843 443.13 L 202.327 442.6 L 202.812 441.096 L 203.296 440.579 L 203.78 439.402 L 204.265 438.962 L 204.749 437.817 L 205.233 437.492 L 205.718 436.723 L 206.202 436.754 L 206.687 436.683 L 207.171 434.795 L 207.655 434.365 L 208.14 433.12 L 208.624 432.351 L 209.108 433.262 L 209.593 433.347 L 210.077 433.33 L 210.561 432.569 L 211.046 432.263 L 211.53 432.133 L 212.014 431.281 L 212.499 430.685 L 212.983 428.972 L 213.467 428.863 L 213.952 428.109 L 214.436 427.472 L 214.921 427.25 L 215.405 426.421 L 215.889 424.289 L 216.374 423.863 L 216.858 423.829 L 217.342 422.12 L 217.827 420.718 L 218.311 420.626 L 218.795 419.289 L 219.28 418.712 L 219.764 418.058 L 220.248 417.722 L 220.733 415.829 L 221.217 416.02 L 221.702 415.236 L 222.186 413.647 L 222.67 413.464 L 223.155 413.369 L 223.639 413.719 L 224.123 412.348 L 224.608 411.396 L 225.092 411.464 L 225.576 410.855 L 226.061 409.756 L 226.545 408.803 L 227.029 408.804 L 227.514 408.655 L 227.998 408.18 L 228.483 407.461 L 228.967 406.719 L 229.451 406.026 L 229.936 405.317 L 230.42 405.206 L 230.904 405.138 L 231.389 404.613 L 231.873 404.416 L 232.357 403.97 L 232.842 402.985 L 233.326 402.163 L 233.81 401.939 L 234.295 400.92 L 234.779 400.381 L 235.263 399.916 L 235.748 400.121 L 236.232 399.892 L 236.717 399.891 L 237.201 399.813 L 237.685 399.416 L 238.17 398.685 L 238.654 398.478 L 239.138 398.119 L 239.623 396.84 L 240.107 395.94 L 240.591 394.596 L 241.076 394.443 L 241.56 394.531 L 242.044 393.604 L 242.529 392.232 L 243.013 390.47 L 243.498 390.23 L 243.982 389.771 L 244.466 388.797 L 244.951 388.159 L 245.435 387.63 L 245.919 386.718 L 246.404 386.81 L 246.888 386.038 L 247.372 385.594 L 247.857 385.058 L 248.341 385.047 L 248.825 385.308 L 249.31 385.284 L 249.794 384.201 L 250.279 382.447 L 250.763 382.197 L 251.247 381.067 L 251.732 380.46 L 252.216 380.105 L 252.7 379.334 L 253.185 378.522 L 253.669 377.383 L 254.153 377.006 L 254.638 376.828 L 255.122 377.874 L 255.606 377.021 L 256.091 376.656 L 256.575 375.361 L 257.059 375.184 L 257.544 374.407 L 258.028 374.006 L 258.513 373.557 L 258.997 373.287 L 259.481 373.404 L 259.966 372.14 L 260.45 371.848 L 260.934 372.596 L 261.419 372.013 L 261.903 370.923 L 262.387 369.806 L 262.872 368.161 L 263.356 367.418 L 263.84 367.368 L 264.325 366.825 L 264.809 366.904 L 265.294 366.583 L 265.778 366.67 L 266.262 365.587 L 266.747 364.773 L 267.231 364.504 L 267.715 364.629 L 268.2 363.903 L 268.684 363.07 L 269.168 361.256 L 269.653 361.215 L 270.137 360.652 L 270.621 359.901 L 271.106 357.957 L 271.59 358.797 L 272.074 358.408 L 272.559 357.43 L 273.043 357.372 L 273.528 357.247 L 274.012 357.392 L 274.496 357.556 L 274.981 356.745 L 275.465 356.687 L 275.949 356.878 L 276.434 356.989 L 276.918 356.538 L 277.402 355.92 L 277.887 356.077 L 278.371 355.685 L 278.855 355.724 L 279.34 355.612 L 279.824 354.081 L 280.309 353.052 L 280.793 352.323 L 281.277 351.684 L 281.762 350.233 L 282.246 349.741 L 282.73 349.783 L 283.215 350.116 L 283.699 349.39 L 284.183 348.707 L 284.668 348.635 L 285.152 347.951 L 285.636 347.926 L 286.121 347.144 L 286.605 346.448 L 287.09 345.612 L 287.574 345.112 L 288.058 343.957 L 288.543 343.542 L 289.027 343.205 L 289.511 343.308 L 289.996 343.906 L 290.48 344.39 L 290.964 345.543 L 291.449 345.81 L 291.933 345.025 L 292.417 345.409 L 292.902 344.678 L 293.386 345.013 L 293.87 345.045 L 294.355 345.459 L 294.839 344.947 L 295.324 344.485 L 295.808 344.539 L 296.292 344.086 L 296.777 343.881 L 297.261 344.191 L 297.745 344.103 L 298.23 342.911 L 298.714 343.09 L 299.198 342.888 L 299.683 341.806 L 300.167 341.721 L 300.651 341.017 L 301.136 339.255 L 301.62 338.976 L 302.105 339.096 L 302.589 338.719 L 303.073 337.854 L 303.558 338.13 L 304.042 338.17 L 304.526 337.283 L 305.011 336.702 L 305.495 335.847 L 305.979 334.673 L 306.464 334.746 L 306.948 333.808 L 307.432 333.403 L 307.917 333.744 L 308.401 333.205 L 308.885 333.289 L 309.37 333.275 L 309.854 332.887 L 310.339 332 L 310.823 331.245 L 311.307 330.773 L 311.792 330.563 L 312.276 329.67 L 312.76 329.125 L 313.245 327.977 L 313.729 327.781 L 314.213 327.418 L 314.698 327.294 L 315.182 327.012 L 315.666 326.821 L 316.151 325.823 L 316.635 324.961 L 317.12 325.346 L 317.604 324.657 L 318.088 324.72 L 318.573 324.286 L 319.057 324.516 L 319.541 325.536 L 320.026 325.221 L 320.51 324.702 L 320.994 324.623 L 321.479 324.426 L 321.963 324.02 L 322.447 323.475 L 322.932 322.811 L 323.416 322.053 L 323.901 323.008 L 324.385 322.282 L 324.869 321.964 L 325.354 321.384 L 325.838 321.733 L 326.322 320.936 L 326.807 320.708 L 327.291 319.63 L 327.775 319.774 L 328.26 319.471 L 328.744 320.204 L 329.228 318.565 L 329.713 316.974 L 330.197 316.78 L 330.681 317.149 L 331.166 316.421 L 331.65 315.58 L 332.135 315.018 L 332.619 316.973 L 333.103 316.345 L 333.588 315.122 L 334.072 314.21 L 334.556 314.107 L 335.041 313.698 L 335.525 313.089 L 336.009 313.193 L 336.494 313.343 L 336.978 313.085 L 337.462 312.779 L 337.947 312.226 L 338.431 311.59 L 338.916 311.65 L 339.4 311.785 L 339.884 312.409 L 340.369 311.617 L 340.853 311.209 L 341.337 310.671 L 341.822 309.852 L 342.306 309.705 L 342.79 308.889 L 343.275 308.309 L 343.759 308.005 L 344.243 306.569 L 344.728 305.736 L 345.212 305.742 L 345.697 305.162 L 346.181 304.638 L 346.665 304.706 L 347.15 305.049 L 347.634 305.043 L 348.118 305.039 L 348.603 304.7 L 349.087 303.915 L 349.571 303.795 L 350.056 303.987 L 350.54 303.97 L 351.024 303.611 L 351.509 302.315 L 351.993 302.542 L 352.477 303.041 L 352.962 302.783 L 353.446 303.081 L 353.931 302.119 L 354.415 301.947 L 354.899 301.021 L 355.384 301.47 L 355.868 301.336 L 356.352 301.134 L 356.837 300.47 L 357.321 300.629 L 357.805 300.011 L 358.29 300.233 L 358.774 299.693 L 359.258 298.612 L 359.743 298.903 L 360.227 298.191 L 360.712 297.453 L 361.196 296.823 L 361.68 297.94 L 362.165 298.012 L 362.649 297.409 L 363.133 297.292 L 363.618 295.424 L 364.102 294.951 L 364.586 295.8 L 365.071 294.399 L 365.555 294.854 L 366.039 295.249 L 366.524 293.704 L 367.008 292.856 L 367.492 292.81 L 367.977 293.465 L 368.461 292.221 L 368.946 292.258 L 369.43 290.575 L 369.914 289.786 L 370.399 288.803 L 370.883 288.651 L 371.367 288.544 L 371.852 286.811 L 372.336 285.466 L 372.82 284.653 L 373.305 284.971 L 373.789 284.732 L 374.273 284.495 L 374.758 283.891 L 375.242 283.352 L 375.727 284.688 L 376.211 283.915 L 376.695 282.678 L 377.18 282.545 L 377.664 281.69 L 378.148 282.205 L 378.633 281.731 L 379.117 282.142 L 379.601 282.125 L 380.086 281.854 L 380.57 282.171 L 381.054 281.632 L 381.539 281.862 L 382.023 280.887 L 382.508 280.18 L 382.992 280 L 383.476 280.024 L 383.961 279.492 L 384.445 280.118 L 384.929 279.328 L 385.414 278.557 L 385.898 278.48 L 386.382 278.425 L 386.867 277.68 L 387.351 277.308 L 387.835 277.519 L 388.32 277.5 L 388.804 276.159 L 389.288 274.4 L 389.773 274.001 L 390.257 273.511 L 390.742 274.189 L 391.226 273.129 L 391.71 272.135 L 392.195 270.803 L 392.679 271.01 L 393.163 270.837 L 393.648 270.495 L 394.132 269.003 L 394.616 268.648 L 395.101 268.091 L 395.585 268.156 L 396.069 267.337 L 396.554 267.653 L 397.038 266.897 L 397.523 266.624 L 398.007 266.567 L 398.491 265.861 L 398.976 266.059 L 399.46 265.58 L 399.944 264.797 L 400.429 264.839 L 400.913 264.141 L 401.397 264.442 L 401.882 264.388 L 402.366 262.037 L 402.85 261.281 L 403.335 261.119 L 403.819 261.216 L 404.303 260.931 L 404.788 260.048 L 405.272 260.204 L 405.757 260.289 L 406.241 259.972 L 406.725 260.035 L 407.21 259.659 L 407.694 260.338 L 408.178 260.835 L 408.663 260.185 L 409.147 260.169 L 409.631 259.253 L 410.116 258.717 L 410.6 258.477 L 411.084 259.482 L 411.569 259.627 L 412.053 259.22 L 412.538 259.058 L 413.022 259.517 L 413.506 259.108 L 413.991 259.607 L 414.475 258.826 L 414.959 258.313 L 415.444 258.958 L 415.928 257.99 L 416.412 258.066 L 416.897 257.859 L 417.381 257.546 L 417.865 257.667 L 418.35 256.544 L 418.834 256.743 L 419.319 256.956 L 419.803 255.593 L 420.287 254.688 L 420.772 254.616 L 421.256 254.133 L 421.74 254.406 L 422.225 254.295 L 422.709 254.328 L 423.193 253.28 L 423.678 253.99 L 424.162 253.602 L 424.646 252.65 L 425.131 252.912 L 425.615 252.135 L 426.099 253.392 L 426.584 253.424 L 427.068 254.598 L 427.553 254.533 L 428.037 253.893 L 428.521 254.064 L 429.006 254.147 L 429.49 254.109 L 429.974 254.056 L 430.459 253.862 L 430.943 253.317 L 431.427 252.807 L 431.912 253.035 L 432.396 252.593 L 432.88 251.868 L 433.365 251.174 L 433.849 251.384 L 434.334 250.556 L 434.818 250.865 L 435.302 250.474 L 435.787 250.442 L 436.271 249.852 L 436.755 249.458 L 437.24 248.605 L 437.724 248.295 L 438.208 247.147 L 438.693 246.045 L 439.177 244.859 L 439.661 243.235 L 440.146 242.944 L 440.63 242.301 L 441.115 241.525 L 441.599 240.541 L 442.083 240.112 L 442.568 239.375 L 443.052 238.121 L 443.536 238.385 L 444.021 237.954 L 444.505 237.744 L 444.989 237.158 L 445.474 237.925 L 445.958 237.752 L 446.442 237.624 L 446.927 237.488 L 447.411 236.778 L 447.895 236.544 L 448.38 235.88 L 448.864 234.545 L 449.349 234.256 L 449.833 233.168 L 450.317 233.27 L 450.802 233.756 L 451.286 234.511 L 451.77 234.629 L 452.255 234.355 L 452.739 234.616 L 453.223 234.619 L 453.708 235.046 L 454.192 234.687 L 454.676 234.325 L 455.161 234.838 L 455.645 234.754 L 456.13 234.117 L 456.614 234.271 L 457.098 233.307 L 457.583 233.674 L 458.067 232.123 L 458.551 231.201 L 459.036 230.328 L 459.52 230.358 L 460.004 228.889 L 460.489 227.883 L 460.973 226.816 L 461.457 226.645 L 461.942 225.775 L 462.426 225.24 L 462.91 225.39 L 463.395 226.791 L 463.879 225.364 L 464.364 225.341 L 464.848 224.423 L 465.332 223.929 L 465.817 224.269 L 466.301 223.405 L 466.785 221.827 L 467.27 221.591 L 467.754 221.858 L 468.238 221.625 L 468.723 221.804 L 469.207 221.055 L 469.691 220.695 L 470.176 220.101 L 470.66 219.187 L 471.145 219.757 L 471.629 219.668 L 472.113 219.152 L 472.598 218.909 L 473.082 217.923 L 473.566 218.265 L 474.051 218.023 L 474.535 217.592 L 475.019 216.303 L 475.504 216.616 L 475.988 215.302 L 476.472 213.835 L 476.957 214.07 L 477.441 214.295 L 477.926 214.022 L 478.41 213.557 L 478.894 213.371 L 479.379 213.134 L 479.863 212.513 L 480.347 212.722 L 480.832 213.105 L 481.316 212.648 L 481.8 211.622 L 482.285 210.934 L 482.769 211.273 L 483.253 210.899 L 483.738 210.831 L 484.222 211.185 L 484.706 210.494 L 485.191 210.944 L 485.675 211.117 L 486.16 210.989 L 486.644 209.196 L 487.128 208.793 L 487.613 208.315 L 488.097 208.311 L 488.581 209.004 L 489.066 208.949 L 489.55 208.952 L 490.034 209.658 L 490.519 208.705 L 491.003 209.087 L 491.487 209.483 L 491.972 209.383 L 492.456 208.384 L 492.941 208.747 L 493.425 208.801 L 493.909 208.239 L 494.394 207.994 L 494.878 207.312 L 495.362 208.047 L 495.847 207.636 L 496.331 207.476 L 496.815 207.281 L 497.3 207.486 L 497.784 207.002 L 498.268 205.758 L 498.753 206.124 L 499.237 205.402 L 499.721 205.293 L 500.206 203.358 L 500.69 202.57 L 501.175 202.109 L 501.659 201.373 L 502.143 200.445 L 502.628 199.591 L 503.112 199.087 L 503.596 199.046 L 504.081 198.021 L 504.565 198.103 L 505.049 197.869 L 505.534 197.446 L 506.018 197.47 L 506.502 197.308 L 506.987 196.847 L 507.471 196.67 L 507.956 196.898 L 508.44 196.135 L 508.924 195.878 L 509.409 196.524 L 509.893 196.504 L 510.377 195.374 L 510.862 194.622 L 511.346 194.775 L 511.83 195.258 L 512.315 195.27 L 512.799 194.828 L 513.283 194.493 L 513.768 194.989 L 514.252 194.919 L 514.737 195.113 L 515.221 194.611 L 515.705 194.569 L 516.19 194.488 L 516.674 194.454 L 517.158 193.628 L 517.643 193.347 L 518.127 191.795 L 518.611 190.353 L 519.096 190.279 L 519.58 188.695 L 520.064 188.38 L 520.549 188.477 L 521.033 188.262 L 521.517 188.816 L 522.002 188.171 L 522.486 187.438 L 522.971 186.71 L 523.455 186.757 L 523.939 186.153 L 524.424 185.828 L 524.908 185.712 L 525.392 183.977 L 525.877 182.868 L 526.361 182.365 L 526.845 181.189 L 527.33 179.097 L 527.814 179.124 L 528.298 178.55 L 528.783 178.068 L 529.267 177.866 L 529.752 177.084 L 530.236 177.715 L 530.72 178.128 L 531.205 177.069 L 531.689 177.774 L 532.173 177.432 L 532.658 177.028 L 533.142 177.91 L 533.626 177.778 L 534.111 177.886 L 534.595 177.709 L 535.079 178.301 L 535.564 176.539 L 536.048 176.52 L 536.532 176.071 L 537.017 176.103 L 537.501 175.494 L 537.986 174.725 L 538.47 174.565 L 538.954 173.692 L 539.439 174.624 L 539.923 174.203 L 540.407 173.006 L 540.892 172.462 L 541.376 171.993 L 541.86 170.028 L 542.345 170.599 L 542.829 170.005 L 543.313 169.649 L 543.798 168.36 L 544.282 166.246 L 544.767 164.677 L 545.251 164.969 L 545.735 165.207 L 546.22 165.162 L 546.704 164.985 L 547.188 164.582 L 547.673 164.188 L 548.157 164.122 L 548.641 162.674 L 549.126 162.04 L 549.61 162.592 L 550.094 162.409 L 550.579 162.122 L 551.063 161.988 L 551.547 161.817 L 552.032 161.019 L 552.516 160.126 L 553.001 159.804 L 553.485 158.888 L 553.969 159.486 L 554.454 159.968 L 554.938 160.012 L 555.422 159.995 L 555.907 160.159 L 556.391 159.343 L 556.875 158.357 L 557.36 158.035 L 557.844 157.925 L 558.328 157.935 L 558.813 156.844 L 559.297 156.072 L 559.782 156.247 L 560.266 155.777 L 560.75 155.253 L 561.235 155.453 L 561.719 155.038 L 562.203 155.088 L 562.688 154.906 L 563.172 154.141 L 563.656 154.223 L 564.141 152.873 L 564.625 153.456 L 565.109 152.632 L 565.594 152.287 L 566.078 150.938 L 566.562 150.549 L 567.047 149.712 L 567.531 149.601 L 568.016 149.145 L 568.5 148.92 L 568.984 148.514 L 569.469 148.351 L 569.953 147.878 L 570.437 145.992 L 570.922 146.61 L 571.406 146.082 L 571.89 144.851 L 572.375 144.064 L 572.859 142.967 L 573.344 143.081 L 573.828 143.645 L 574.312 144.215 L 574.797 144.56 L 575.281 143.354 L 575.765 143.75 L 576.25 144.361 L 576.734 143.803 L 577.218 145.3 L 577.703 145.716 L 578.187 146.296 L 578.671 146.122 L 579.156 145.804 L 579.64 145.264 L 580.124 144.736 L 580.609 143.681 L 581.093 143.608 L 581.578 142.53 L 582.062 141.75 L 582.546 141.485 L 583.031 141.374 L 583.515 140.875 L 583.999 140.901 L 584.484 141.762 L 584.968 141.401 L 585.452 141.843 L 585.937 141.837 L 586.421 141.522 L 586.905 141.532 L 587.39 141.238 L 587.874 140.75 L 588.359 140.957 L 588.843 142.189 L 589.327 142.289 L 589.812 141.701 L 590.296 141.61 L 590.78 140.351 L 591.265 139.6 L 591.749 139.339 L 592.233 139.225 L 592.718 139.297 L 593.202 139.454 L 593.686 138.855 L 594.171 138.945 L 594.655 138.221 L 595.139 138.294 L 595.624 138.008 L 596.108 139.411 L 596.593 139.013 L 597.077 138.197 L 597.561 137.354 L 598.046 137.218 L 598.53 136.693 L 599.014 135.874 L 599.499 136.303 L 599.983 135.993 L 600.467 134.624 L 600.952 134.615 L 601.436 134.126 L 601.92 133.386 L 602.405 133.065 L 602.889 133.641 L 603.374 134.186 L 603.858 133.524 L 604.342 134.17 L 604.827 134.144 L 605.311 134.008 L 605.795 133.295 L 606.28 133.877 L 606.764 134.26 L 607.248 133.865 L 607.733 134.464 L 608.217 134.159 L 608.701 134.124 L 609.186 133.471 L 609.67 134.402 L 610.154 134.924 L 610.639 134.534 L 611.123 134.621 L 611.608 135.063 L 612.092 135.466 L 612.576 133.916 L 613.061 133.351 L 613.545 133.797 L 614.029 133.264 L 614.514 134.382 L 614.998 135.012 L 615.482 135.284 L 615.967 136.702 L 616.451 136.313 L 616.935 136.373"/> </g>
<g stroke="#000000" stroke-dasharray="" stroke-dashoffset="17.2004" stroke-width="1.36931"><path d=" M 133.065 606.329 L 133.065 616.935 L 133.065 616.935 L 133.065 616.935 L 133.065 616.935 L 143.671 616.935 L 133.065 616.935 L 133.065 606.329 L 133.065 616.935 L 133.065 616.935 L 143.671 616.935 L 133.065 616.935 L 133.065 606.329 L 133.065 616.935 L 133.065 616.935 L 133.065 616.935 L 133.065 616.935 L 133.065 616.935 L 133.065 616.935 L 133.065 616.935 L 143.671 616.935"/> </g>
<g stroke="#000000" stroke-dasharray="" stroke-dashoffset="2.36254" stroke-width="1.36931"><path d=" M 181.452 616.935 L 181.452 616.935"/> </g>
<g stroke="#000000" stroke-dasharray="" stroke-dashoffset="9.4336" stroke-width="1.36931"><path d=" M 229.839 616.935 L 229.839 616.935 L 229.839 616.935"/> </g>
<g stroke="#000000" stroke-dasharray="" stroke-dashoffset="16.5047" stroke-width="1.36931"><path d=" M 278.226 616.935 L 278.226 616.935"/> </g>
<g stroke="#000000" stroke-dasharray="" stroke-dashoffset="1.66683" stroke-width="1.36931"><path d=" M 326.613 616.935 L 326.613 616.935 L 326.613 616.935"/> </g>
<g stroke="#000000" stroke-dasharray="" stroke-dashoffset="8.7379" stroke-width="1.36931"><path d=" M 375 616.935 L 375 616.935"/> </g>
<g stroke="#000000" stroke-dasharray="" stroke-dashoffset="15.809" stroke-width="1.36931"><path d=" M 423.387 616.935 L 423.387 616.935 L 423.387 616.935"/> </g>
<g stroke="#000000" stroke-dasharray="" stroke-dashoffset="0.971124" stroke-width="1.36931"><path d=" M 471.774 616.935 L 471.774 616.935"/> </g>
<g stroke="#000000" stroke-dasharray="" stroke-dashoffset="8.04219" stroke-width="1.36931"><path d=" M 520.161 616.935 L 520.161 616.935 L 520.161 616.935"/> </g>
<g stroke="#000000" stroke-dasharray="" stroke-dashoffset="15.1133" stroke-width="1.36931"><path d=" M 568.548 616.935 L 568.548 616.935"/> </g>
<g stroke="#000000" stroke-dasharray="" stroke-dashoffset="0.275417" stroke-width="1.36931"><path d=" M 616.935 616.935 L 616.935 616.935 L 616.935 616.935"/> </g>
<g stroke="#000000" stroke-dasharray="" stroke-dashoffset="13.3536" stroke-width="1.36931"><path d=" M 133.065 588.095 L 133.065 588.095"/> </g>
<g stroke="#000000" stroke-dasharray="" stroke-dashoffset="20.4246" stroke-width="1.36931"><path d=" M 133.065 559.255 L 133.065 559.255 L 133.065 559.255"/> </g>
<g stroke="#000000" stroke-dasharray="" stroke-dashoffset="5.58678" stroke-width="1.36931"><path d=" M 133.065 530.415 L 133.065 530.415"/> </g>
<g stroke="#000000" stroke-dasharray="" stroke-dashoffset="12.6578" stroke-width="1.36931"><path d=" M 133.065 501.575 L 133.065 501.575 L 133.065 501.575"/> </g>
<g stroke="#000000" stroke-dasharray="" stroke-dashoffset="19.7289" stroke-width="1.36931"><path d=" M 133.065 472.735 L 133.065 472.735"/> </g>
<g stroke="#000000" stroke-dasharray="" stroke-dashoffset="4.89107" stroke-width="1.36931"><path d=" M 133.065 443.895 L 133.065 443.895 L 133.065 443.895"/> </g>
<g stroke="#000000" stroke-dasharray="" stroke-dashoffset="11.9621" stroke-width="1.36931"><path d=" M 133.065 415.055 L 133.065 415.055"/> </g>
<g stroke="#000000" stroke-dasharray="" stroke-dashoffset="19.0332" stroke-width="1.36931"><path d=" M 133.065 386.214 L 133.065 386.214 L 133.065 386.214"/> </g>
<g stroke="#000000" stroke-dasharray="" stroke-dashoffset="4.19537" stroke-width="1.36931"><path d=" M 133.065 357.374 L 133.065 357.374"/> </g>
<g stroke="#000000" stroke-dasharray="" stroke-dashoffset="11.2664" stroke-width="1.36931"><path d=" M 133.065 328.534 L 133.065 328.534 L 133.065 328.534"/> </g>
<g stroke="#000000" stroke-dasharray="" stroke-dashoffset="18.3375" stroke-width="1.36931"><path d=" M 133.065 299.694 L 133.065 299.694"/> </g>
<g stroke="#000000" stroke-dasharray="" stroke-dashoffset="3.49966" stroke-width="1.36931"><path d=" M 133.065 270.854 L 133.065 270.854 L 133.065 270.854"/> </g>
<g stroke="#000000" stroke-dasharray="" stroke-dashoffset="10.5707" stroke-width="1.36931"><path d=" M 133.065 242.014 L 133.065 242.014"/> </g>
<g stroke="#000000" stroke-dasharray="" stroke-dashoffset="17.6418" stroke-width="1.36931"><path d=" M 133.065 213.174 L 133.065 213.174 L 133.065 213.174"/> </g>
<g stroke="#000000" stroke-dasharray="" stroke-dashoffset="2.80395" stroke-width="1.36931"><path d=" M 133.065 184.334 L 133.065 184.334"/> </g>
<g stroke="#000000" stroke-dasharray="" stroke-dashoffset="9.87502" stroke-width="1.36931"><path d=" M 133.065 155.493 L 133.065 155.493 L 133.065 155.493"/> </g>
<g stroke="#000000" stroke-dasharray="" stroke-dashoffset="0.275417" stroke-width="1.36931"><path d=" M 133.065 601.935 L 133.065 616.935 L 133.065 616.935 L 133.065 616.935 L 148.065 616.935"/> </g>
<g stroke="#000000" stroke-dasharray="" stroke-dashoffset="0.275417" stroke-width="1.36931"><path d=" M 133.065 606.329 L 133.065 616.935 L 133.065 616.935 L 133.065 616.935 L 133.065 616.935 L 143.671 616.935 L 133.065 616.935 L 133.065 606.329 L 133.065 616.935 L 133.065 616.935 L 133.065 616.935 L 143.671 616.935 L 133.065 616.935 L 133.065 606.329 L 133.065 616.935 L 133.065 616.935 L 143.671 616.935"/> </g>
<g stroke="#000000" stroke-dasharray="" stroke-dashoffset="0.275417" stroke-width="1.36931"><path d=" M 133.065 601.935 L 133.065 616.935 L 133.065 616.935 L 148.065 616.935"/> </g>
<g stroke="#000000" stroke-dasharray="" stroke-dashoffset="0.275417" stroke-width="1.36931"><path d=" M 133.065 606.329 L 133.065 616.935 L 133.065 616.935 L 133.065 616.935 L 133.065 616.935 L 143.671 616.935 L 133.065 616.935 L 133.065 606.329 L 133.065 616.935 L 133.065 616.935 L 143.671 616.935 L 133.065 616.935 L 133.065 606.329 L 133.065 616.935 L 133.065 616.935 L 133.065 616.935 L 143.671 616.935"/> </g>
<g stroke="#000000" stroke-dasharray="" stroke-dashoffset="0.275417" stroke-width="1.36931"><path d=" M 133.065 601.935 L 133.065 616.935 L 133.065 616.935 L 133.065 616.935 L 148.065 616.935"/> </g>
<g stroke="#000000" stroke-dasharray="" stroke-dashoffset="0.275417" stroke-width="1.36931"><path d=" M 133.065 606.329 L 133.065 616.935 L 133.065 616.935 L 133.065 616.935 L 133.065 616.935 L 143.671 616.935 L 133.065 616.935 L 133.065 606.329 L 133.065 616.935 L 133.065 616.935 L 133.065 616.935 L 143.671 616.935 L 133.065 616.935 L 133.065 606.329 L 133.065 616.935 L 133.065 616.935 L 143.671 616.935"/> </g>
<g stroke="#000000" stroke-dasharray="" stroke-dashoffset="0.275417" stroke-width="1.36931"><path d=" M 133.065 601.935 L 133.065 616.935 L 133.065 616.935 L 148.065 616.935"/> </g>
</g></svg>