<?xml version="1.0" encoding="UTF-8" standalone="no"?>
<svg
   xmlns:dc="http://purl.org/dc/elements/1.1/"
   xmlns:cc="http://creativecommons.org/ns#"
   xmlns:rdf="http://www.w3.org/1999/02/22-rdf-syntax-ns#"
   xmlns:svg="http://www.w3.org/2000/svg"
   xmlns="http://www.w3.org/2000/svg"
   xmlns:sodipodi="http://sodipodi.sourceforge.net/DTD/sodipodi-0.dtd"
   xmlns:inkscape="http://www.inkscape.org/namespaces/inkscape"
   width="750"
   height="750"
   version="1.1"
   id="svg8056"
   sodipodi:docname="t2.svg"
   inkscape:version="0.92.0 r">
  <metadata
     id="metadata8060">
    <rdf:RDF>
      <cc:Work
         rdf:about="">
        <dc:format>image/svg+xml</dc:format>
        <dc:type
           rdf:resource="http://purl.org/dc/dcmitype/StillImage" />
      </cc:Work>
    </rdf:RDF>
  </metadata>
  <sodipodi:namedview
     pagecolor="#ffffff"
     bordercolor="#666666"
     borderopacity="1"
     objecttolerance="10"
     gridtolerance="10"
     guidetolerance="10"
     inkscape:pageopacity="0"
     inkscape:pageshadow="2"
     inkscape:window-width="752"
     inkscape:window-height="480"
     id="namedview8058"
     showgrid="false"
     inkscape:zoom="0.31466667"
     inkscape:cx="283.57191"
     inkscape:cy="275.01169"
     inkscape:window-x="0"
     inkscape:window-y="0"
     inkscape:window-maximized="0"
     inkscape:current-layer="svg8056" />
  <!--Created by MathGL library-->
  <!--Title: -->
  <!--CreationDate: Wed Jan 18 02:08:23 2017
-->
  <defs
     id="defs7650">
    <g
       id="nn_0000">
      <path
         d=" M 238 165 L 232 222 L 218 270 L 194 307 L 164 330 L 127 338 L 84 329 L 52 304 L 29 266 L 16 220 L 12 168 L 16 118 L 27 71 L 48 31 L 80 3 L 125 -6 L 168 2 L 200 29 L 222 67 L 234 114 L 238 165 Z  M 190 162 L 187 108 L 179 65 L 166 33 L 148 13 L 125 6 L 102 13 L 84 33 L 71 65 L 63 109 L 60 165 L 63 220 L 71 265 L 84 298 L 101 318 L 124 325 L 148 318 L 166 298 L 179 265 L 187 219 L 190 162 Z "
         id="path7647" />
    </g>
  </defs>
  <defs
     id="defs7655">
    <g
       id="nn_0001">
      <path
         d=" M 237 69 L 230 71 L 221 57 L 212 48 L 203 42 L 193 39 L 182 38 L 65 38 L 147 126 L 171 153 L 189 179 L 202 203 L 209 226 L 211 250 L 207 278 L 195 302 L 176 321 L 150 334 L 119 338 L 86 333 L 59 320 L 39 299 L 24 271 L 15 238 L 26 236 L 38 262 L 50 280 L 63 292 L 79 299 L 99 301 L 123 298 L 142 289 L 156 275 L 165 255 L 169 230 L 166 205 L 159 181 L 146 155 L 128 129 L 103 100 L 15 6 L 15 0 L 210 0 Z "
         id="path7652" />
    </g>
  </defs>
  <defs
     id="defs7660">
    <g
       id="nn_0002">
      <path
         d=" M 237 84 L 237 116 L 185 116 L 185 338 L 163 338 L 6 116 L 6 84 L 146 84 L 146 0 L 185 0 L 185 84 Z  M 146 116 L 26 116 L 146 287 Z "
         id="path7657" />
    </g>
  </defs>
  <defs
     id="defs7665">
    <g
       id="nn_0003">
      <path
         d=" M 223 342 L 185 337 L 152 329 L 123 317 L 97 300 L 71 277 L 52 254 L 37 229 L 26 201 L 19 171 L 17 140 L 18 118 L 21 98 L 26 78 L 33 60 L 41 44 L 53 26 L 68 12 L 86 1 L 106 -4 L 129 -6 L 148 -5 L 166 0 L 182 7 L 196 17 L 209 30 L 218 43 L 225 57 L 230 73 L 233 91 L 234 109 L 230 145 L 217 174 L 198 196 L 172 209 L 140 214 L 127 213 L 115 211 L 103 207 L 90 201 L 76 191 L 89 234 L 111 270 L 142 300 L 180 321 L 224 334 Z  M 189 94 L 187 65 L 180 41 L 169 23 L 154 11 L 134 7 L 109 13 L 89 30 L 75 56 L 66 91 L 64 133 L 67 157 L 76 173 L 89 184 L 105 189 L 122 191 L 146 187 L 165 175 L 179 156 L 187 128 L 189 94 Z "
         id="path7662" />
    </g>
  </defs>
  <defs
     id="defs7670">
    <g
       id="nn_0004">
      <path
         d=" M 223 78 L 220 100 L 213 121 L 199 141 L 177 162 L 145 185 L 171 200 L 190 215 L 203 229 L 210 246 L 212 267 L 208 289 L 197 309 L 179 324 L 156 334 L 128 338 L 97 335 L 70 324 L 49 308 L 36 287 L 31 260 L 33 242 L 38 225 L 49 208 L 67 189 L 93 166 L 66 145 L 47 127 L 35 111 L 30 94 L 28 75 L 32 48 L 45 25 L 66 8 L 92 -2 L 124 -6 L 157 -2 L 185 8 L 205 26 L 218 49 L 223 78 Z  M 177 267 L 176 249 L 171 234 L 162 220 L 149 207 L 131 195 L 107 210 L 90 225 L 77 240 L 70 257 L 68 275 L 71 292 L 78 305 L 89 316 L 104 322 L 123 324 L 142 322 L 157 314 L 168 302 L 175 286 L 177 267 Z  M 136 136 L 154 122 L 167 109 L 177 95 L 183 79 L 185 62 L 182 44 L 175 29 L 163 17 L 148 10 L 129 7 L 108 10 L 91 19 L 77 34 L 69 54 L 66 79 L 67 97 L 71 113 L 79 128 L 90 142 L 106 156 Z "
         id="path7667" />
    </g>
  </defs>
  <defs
     id="defs7675">
    <g
       id="nn_0005">
      <path
         d=" M 197 0 L 197 7 L 178 8 L 164 12 L 155 18 L 151 27 L 150 38 L 150 336 L 145 338 L 55 292 L 55 286 L 69 291 L 74 293 L 84 295 L 88 296 L 92 296 L 97 295 L 101 293 L 104 288 L 106 281 L 107 272 L 107 47 L 105 33 L 100 22 L 92 14 L 78 10 L 59 7 L 59 0 Z "
         id="path7672" />
    </g>
  </defs>
  <defs
     id="defs7680">
    <g
       id="nn_0006">
      <path
         d=" M 299 11 L 184 126 L 299 242 L 276 265 L 160 150 L 45 265 L 22 242 L 137 126 L 22 11 L 45 -11 L 160 103 L 276 -11 Z "
         id="path7677" />
    </g>
  </defs>
  <defs
     id="defs7685">
    <g
       id="nn_0007">
      <path
         d=" M 31 255 L 43 275 L 57 290 L 71 300 L 87 306 L 105 308 L 123 306 L 138 300 L 149 290 L 157 275 L 159 257 L 157 240 L 152 224 L 143 211 L 132 199 L 118 190 L 112 186 L 105 183 L 96 179 L 87 176 L 76 172 L 76 165 L 92 165 L 104 164 L 113 163 L 121 162 L 127 160 L 146 152 L 161 141 L 171 127 L 178 109 L 180 88 L 176 63 L 167 42 L 153 26 L 135 15 L 114 11 L 106 11 L 99 13 L 90 15 L 82 20 L 71 26 L 64 31 L 57 35 L 51 38 L 41 40 L 34 39 L 29 36 L 25 32 L 22 27 L 21 22 L 23 12 L 30 4 L 41 -1 L 57 -5 L 76 -6 L 103 -4 L 130 0 L 154 9 L 175 22 L 193 40 L 200 52 L 207 65 L 211 79 L 214 94 L 215 109 L 214 125 L 212 139 L 207 152 L 201 164 L 194 174 L 187 180 L 181 185 L 173 190 L 164 195 L 152 200 L 170 213 L 183 226 L 192 241 L 197 255 L 199 270 L 195 292 L 184 311 L 168 326 L 146 335 L 121 338 L 92 334 L 68 323 L 48 306 L 33 284 L 22 257 Z "
         id="path7682" />
    </g>
  </defs>
  <defs
     id="defs7690">
    <g
       id="nn_0008">
      <path
         d=" M 310 110 L 310 143 L 32 143 L 32 110 Z "
         id="path7687" />
    </g>
  </defs>
  <defs
     id="defs7695">
    <g
       id="nn_0009">
      <path
         d=" M 90 22 L 89 30 L 85 38 L 79 44 L 71 49 L 63 50 L 54 49 L 46 45 L 40 39 L 37 31 L 35 22 L 37 13 L 40 6 L 46 0 L 54 -3 L 63 -5 L 71 -3 L 79 0 L 85 6 L 89 13 L 90 22 Z "
         id="path7692" />
    </g>
  </defs>
  <defs
     id="defs7700">
    <g
       id="nn_000a">
      <path
         d=" M 219 340 L 214 344 L 210 339 L 206 335 L 202 333 L 197 331 L 87 331 L 32 213 L 32 208 L 34 206 L 38 206 L 65 204 L 89 199 L 110 191 L 129 182 L 145 171 L 156 159 L 166 146 L 172 131 L 177 114 L 178 96 L 174 71 L 164 48 L 149 29 L 131 16 L 110 12 L 104 12 L 98 14 L 90 17 L 83 21 L 75 27 L 66 34 L 58 39 L 51 41 L 45 43 L 38 43 L 30 42 L 24 40 L 19 36 L 17 31 L 16 24 L 19 13 L 27 5 L 40 -1 L 58 -5 L 79 -6 L 99 -5 L 117 -2 L 134 1 L 149 8 L 164 17 L 182 33 L 196 51 L 206 71 L 211 95 L 213 122 L 213 137 L 211 150 L 207 162 L 202 174 L 195 185 L 178 205 L 159 220 L 137 232 L 108 241 L 70 249 L 90 291 L 188 291 L 192 292 L 198 294 L 200 296 L 201 298 Z "
         id="path7697" />
    </g>
  </defs>
  <path
     style="fill:none;stroke:#1d56ab;stroke-width:2.73861003;stroke-dasharray:none;stroke-dashoffset:15.28359985;fill-opacity:1;stroke-opacity:1"
     d="m 131.065,640.935 0.484,-12.792 0.484,-6.487 0.485,-5.896 0.484,-2.695 0.484,-4.532 0.485,-2.104 0.484,-2.414 0.484,-3.274 0.485,-2.634 0.484,-1.964 0.484,-1.391 0.485,-2.278 0.484,-1.491 0.484,-1.329 0.485,-1.554 0.484,-2.249 0.485,-0.621 0.484,-1.178 0.484,-2.033 0.485,-2.129 0.484,-0.563 0.484,-2.332 0.485,-2.55 0.484,-3.282 0.484,-0.983 0.485,-4.9 0.484,-1.403 0.484,-3.105 0.485,-0.752 0.484,-0.881 0.485,-1.158 0.484,-2.942 0.484,-0.969 0.485,-0.843 0.484,-1.219 0.484,-0.402 0.485,-1.924 0.484,-0.982 0.484,-1.362 0.485,-0.255 0.484,-0.244 0.484,-1.702 0.485,1.023 0.484,-1.669 0.485,-2.734 0.484,-1.52 0.484,-2.287 0.485,-1.903 0.484,-1.612 0.484,-0.075 0.485,-1.664 0.484,-1.375 0.484,-2.505 0.485,-1.513 0.484,-0.845 0.484,-1.058 0.485,-1.438 0.484,0.74 0.484,0.697 0.485,1.229 0.484,-0.13 0.485,-0.65 0.484,-0.81 0.484,-0.876 0.485,-1.353 0.484,-0.799 0.484,-0.913 0.485,-0.563 0.484,0.754 0.484,-1.703 0.485,0.089 0.484,-0.485 0.484,-1.248 0.485,-0.568 0.484,-2.216 0.485,-0.378 0.484,-0.485 0.484,-1.355 0.485,-1.515 0.484,0.277 0.484,-1.07 0.485,0.521 0.484,0.163 0.484,-2.259 0.485,-0.574 0.484,-2.264 0.484,-0.06 0.485,-0.454 0.484,-0.118 0.484,-1.762 0.485,-1.31 0.484,-1.439 0.485,-1.343 0.484,-0.753 0.484,-1.9 0.485,0.225 0.484,0.912 0.484,-0.927 0.485,-0.169 0.484,-0.711 0.484,-1.626 0.485,0.586 0.484,-2.307 0.484,-1.796 0.485,-1.191 0.484,-3.445 0.485,-3.655 0.484,-2.219 0.484,-0.972 0.485,0.385 0.484,0.676 0.484,-0.251 0.485,1.268 0.484,-0.768 0.484,-2.347 0.485,-0.397 0.484,-0.702 0.484,-2.279 0.485,-1.524 0.484,-2.885 0.485,-1.54 0.484,-0.292 0.484,-0.554 0.485,-0.594 0.484,-0.266 0.484,0.449 0.485,-1.477 0.484,-2.849 0.484,0.098 0.485,-1.833 0.484,-1.495 0.484,-1.538 0.485,0.501 0.484,1.213 0.484,-0.611 0.485,-0.459 0.484,-0.134 0.485,-0.071 0.484,-2.532 0.484,-1.393 0.485,-1.185 0.484,1.027 0.484,-1.428 0.485,-0.787 0.484,-0.197 0.484,-1.039 0.485,-1.305 0.484,-0.858 0.484,-0.441 0.485,0.064 0.484,-1.788 0.485,-1.054 0.484,-1.105 0.484,0.184 0.485,-0.695 0.484,-1.045 0.484,0.452 0.485,-1.205 0.484,-0.554 0.484,-0.228 0.485,-1.383 0.484,-0.958 0.484,-1.596 0.485,-1.688 0.484,-0.361 0.484,-0.066 0.485,-0.716 0.484,-1.192 0.485,-1.689 0.484,-0.099 0.484,-1.953 0.485,-1.561 0.484,-2.596 0.484,-0.84 0.485,0.4 0.484,-0.651 0.484,-0.806 0.485,-1.084 0.484,0.106 0.484,-2.032 0.485,-0.598 0.484,-0.948 0.485,1.209 0.484,-1.369 0.484,-2.051 0.485,0.066 0.484,0.269 0.484,1.16 0.485,-0.787 0.484,0.199 0.484,-0.099 0.485,0.198 0.484,-0.62 0.484,-0.534 0.485,-0.844 0.484,-0.668 0.485,-1.159 0.484,0.711 0.484,0.505 0.485,-1.625 0.484,0.016 0.484,-0.712 0.485,0.177 0.484,-0.199 0.484,-0.998 0.485,-0.414 0.484,-2.764 0.484,0.217 0.485,-0.092 0.484,-0.196 0.484,0.292 0.485,-0.218 0.484,-1.232 0.485,-1.75 0.484,-1.574 0.484,-1.127 0.485,-0.357 0.484,-1.607 0.484,-0.557 0.485,-2.622 0.484,0.284 0.484,-1.256 0.485,-0.826 0.484,-0.703 0.484,-0.171 0.485,-3.289 0.484,-0.82 0.485,-0.764 0.484,-2.797 0.484,-3.135 0.485,-0.824 0.484,0.735 0.484,1.043 0.485,-1.096 0.484,-0.505 0.484,-0.222 0.485,-3.309 0.484,-0.393 0.484,-0.4 0.485,-1.545 0.484,-1.462 0.485,-0.634 0.484,-1.861 0.484,0.382 0.485,-2.633 0.484,-0.116 0.484,-0.883 0.485,-1.138 0.484,-1.144 0.484,0.359 0.485,0.056 0.484,-3.343 0.484,-0.047 0.485,0.513 0.484,-0.124 0.484,0.684 0.485,-3.203 0.484,1.214 0.485,0.12 0.484,-0.549 0.484,-0.139 0.485,0.391 0.484,-1.199 0.484,-1.379 0.485,-1.757 0.484,0.256 0.484,-0.659 0.485,0.1 0.484,0.077 0.484,-0.191 0.485,0.559 0.484,-1.739 0.485,0.015 0.484,-1.214 0.484,-0.665 0.485,0.087 0.484,-0.8 0.484,-1.491 0.485,-1.04 0.484,-0.232 0.484,-1.445 0.485,-0.73 0.484,-2.226 0.484,-0.875 0.485,-0.078 0.484,0.696 0.484,0.942 0.485,-0.217 0.484,0.179 0.485,-0.746 0.484,-2.462 0.484,1.174 0.485,1.941 0.484,-0.447 0.484,-1.279 0.485,-0.038 0.484,-0.079 0.484,0.719 0.485,-1.011 0.484,-0.271 0.484,-0.975 0.485,2.024 0.484,-0.719 0.485,0.285 0.484,-0.473 0.484,-2.014 0.485,-0.005 0.484,-0.622 0.484,-1.22 0.485,-0.821 0.484,-1.392 0.484,0.414 0.485,-0.328 0.484,1.896 0.484,-1.537 0.485,1.175 0.484,0.473 0.485,-0.986 0.484,0.326 0.484,-0.346 0.485,-1.547 0.484,-1.357 0.484,-0.03 0.485,0.5 0.484,-0.839 0.484,-0.129 0.485,0.832 0.484,1.268 0.484,-0.306 0.485,-0.775 0.484,0.494 0.484,-0.421 0.485,-1.189 0.484,-1.465 0.485,-0.384 0.484,0.186 0.484,-1.183 0.485,-1.184 0.484,-0.644 0.484,-0.202 0.485,-2.39 0.484,-2.563 0.484,-0.432 0.485,-1.403 0.484,-1.389 0.484,-3.438 0.485,-0.741 0.484,-0.12 0.485,-0.656 0.484,0.004 0.484,-1.277 0.485,-0.137 0.484,-0.645 0.484,-0.557 0.485,0.814 0.484,-0.271 0.484,-0.218 0.485,0.013 0.484,0.455 0.484,-0.628 0.485,0.462 0.484,-2.27 0.484,-2.443 0.485,-1.713 0.484,-1.039 0.485,-0.423 0.484,0.611 0.484,-0.373 0.485,-0.605 0.484,-1.263 0.484,0.468 0.485,0.8 0.484,-1.45 0.484,-1.448 0.485,-1.463 0.484,1.435 0.484,-1.394 0.485,-0.019 0.484,10e-4 0.485,-0.651 0.484,-0.257 0.484,-1.531 0.485,-0.227 0.484,-2.938 0.484,-3.008 0.485,0.551 0.484,-0.599 0.484,0.46 0.485,0.83 0.484,0.154 0.484,-0.509 0.485,0.211 0.484,1.859 0.485,-1.699 0.484,-0.378 0.484,-0.26 0.485,-2.218 0.484,-0.973 0.484,0.05 0.485,0.846 0.484,0.406 0.484,-1.136 0.485,0.412 0.484,0.613 0.484,-0.864 0.485,-2.229 0.484,0.86 0.484,-0.259 0.485,-0.432 0.484,-0.227 0.485,-0.103 0.484,-0.705 0.484,-0.533 0.485,-0.482 0.484,0.304 0.484,0.278 0.485,-1.989 0.484,-2.912 0.484,-0.699 0.485,-1.396 0.484,-1.816 0.484,-0.092 0.485,1.218 0.484,-0.036 0.485,0.576 0.484,-1.238 0.484,-0.281 0.485,-0.593 0.484,-1.719 0.484,-0.626 0.485,-0.882 0.484,1.35 0.484,1.336 0.485,-1.856 0.484,-0.794 0.484,1.968 0.485,0.116 0.484,-1.918 0.485,0.146 0.484,-0.708 0.484,-0.147 0.485,-2.013 0.484,-1.953 0.484,-0.272 0.485,0.245 0.484,-1.809 0.484,-1.905 0.485,0.302 0.484,0.08 0.484,1.094 0.485,-1.317 0.484,-0.388 0.484,0.163 0.485,-0.078 0.484,-0.867 0.485,0.07 0.484,1.79 0.484,0.153 0.485,0.661 0.484,0.059 0.484,-0.299 0.485,-2.361 0.484,0.701 0.484,-0.509 0.485,-0.062 0.484,1.968 0.484,-1.238 0.485,-1.116 0.484,-1.961 0.485,0.353 0.484,0.221 0.484,-0.904 0.485,0.091 0.484,1.364 0.484,-1.69 0.485,-0.824 0.484,-0.154 0.484,-0.141 0.485,-1.266 0.484,0.197 0.484,-0.442 0.485,-0.805 0.484,0.217 0.484,0.419 0.485,-1.313 0.484,0.159 0.485,-0.9 0.484,-0.195 0.484,-0.371 0.485,-1.462 0.484,-0.332 0.484,1.575 0.485,-1.497 0.484,-1.419 0.484,-0.499 0.485,1.921 0.484,-0.664 0.484,-0.796 0.485,1.633 0.484,0.114 0.485,0.274 0.484,-0.358 0.484,-0.623 0.485,-0.003 0.484,-0.179 0.484,-0.921 0.485,-0.217 0.484,1.025 0.484,1.167 0.485,-0.117 0.484,0.152 0.484,-0.246 0.485,0.342 0.484,0.296 0.485,-0.899 0.484,-1.971 0.484,-1.228 0.485,-1.771 0.484,-0.859 0.484,-0.034 0.485,-0.832 0.484,-1.91 0.484,-1.403 0.485,-1.702 0.484,0.26 0.484,0.248 0.485,-0.703 0.484,0.081 0.484,-2.274 0.485,-2.537 0.484,-1.432 0.485,-0.683 0.484,1.672 0.484,-1.53 0.485,0.12 0.484,-2.186 0.484,-0.34 0.485,1.236 0.484,-0.563 0.484,-0.319 0.485,0.642 0.484,-0.134 0.484,-0.42 0.485,2.032 0.484,-0.372 0.485,0.004 0.484,-0.503 0.484,1.157 0.485,-0.63 0.484,0.781 0.484,0.289 0.485,1.122 0.484,-0.094 0.484,0.62 0.485,-1.101 0.484,-2.383 0.484,-0.415 0.485,-0.171 0.484,-0.766 0.484,-1.036 0.485,0.336 0.484,-0.476 0.485,0.162 0.484,0.647 0.484,0.33 0.485,-0.361 0.484,0.137 0.484,1.588 0.485,0.504 0.484,0.25 0.484,0.532 0.485,0.021 0.484,-0.449 0.484,-0.072 0.485,0.72 0.484,-1.082 0.485,0.821 0.484,-0.181 0.484,-2.459 0.485,-0.496 0.484,0.701 0.484,0.127 0.485,-0.33 0.484,0.096 0.484,-0.073 0.485,-0.93 0.484,-0.183 0.484,-0.457 0.485,-0.542 0.484,0.336 0.485,0.094 0.484,-0.215 0.484,-1.577 0.485,-1.086 0.484,0.342 0.484,-1.926 0.485,-0.175 0.484,0.17 0.484,0.949 0.485,0.61 0.484,0.229 0.484,0.277 0.485,1.192 0.484,0.102 0.484,-0.131 0.485,-1.17 0.484,-0.879 0.485,-0.704 0.484,0.387 0.484,-1.24 0.485,-0.735 0.484,-0.693 0.484,-1.913 0.485,1.498 0.484,-0.094 0.484,-0.127 0.485,-0.987 0.484,0.386 0.484,-1.164 0.485,-0.446 0.484,-0.402 0.485,-0.05 0.484,-0.307 0.484,-0.387 0.485,-2.234 0.484,0.029 0.484,0.723 0.485,-0.74 0.484,0.333 0.484,0.382 0.485,-0.699 0.484,-0.162 0.484,0.501 0.485,0.011 0.484,-0.293 0.485,-2.148 0.484,-1.9 0.484,-0.799 0.485,1.147 0.484,0.354 0.484,0.207 0.485,1.346 0.484,-1.242 0.484,0.475 0.485,-1.555 0.484,-0.334 0.484,0.091 0.485,0.82 0.484,-1.231 0.484,-0.167 0.485,-0.375 0.484,-0.093 0.485,0.977 0.484,0.859 0.484,-0.187 0.485,-0.018 0.484,-0.468 0.484,0.281 0.485,0.884 0.484,-0.841 0.484,0.231 0.485,-1.64 0.484,-0.126 0.484,-1.58 0.485,0.917 0.484,0.966 0.485,0.266 0.484,-0.027 0.484,0.452 0.485,-0.321 0.484,0.099 0.484,-1.075 0.485,-2.021 0.484,-1.922 0.484,-0.278 0.485,0.526 0.484,1.137 0.484,-0.342 0.485,0.44 0.484,-0.16 0.484,-0.331 0.485,0.915 0.484,0.958 0.485,-1.201 0.484,-3.149 0.484,1.439 0.485,-1.44 0.484,-1.859 0.484,0.174 0.485,-1.087 0.484,-2.983 0.484,0.038 0.485,0.294 0.484,-2.734 0.484,-2.343 0.485,-0.606 0.484,0.212 0.485,0.829 0.484,0.226 0.484,2.101 0.485,-0.458 0.484,1.349 0.484,-0.744 0.485,0.425 0.484,0.132 0.484,0.089 0.485,-0.883 0.484,-0.138 0.484,-0.596 0.485,0.237 0.484,-0.498 0.485,-0.102 0.484,-0.84 0.484,0.313 0.485,-3.466 0.484,2.095 0.484,1.138 0.485,0.288 0.484,-3.205 0.484,0.036 0.485,0.511 0.484,1.628 0.484,0.048 0.485,0.739 0.484,-0.421 0.484,0.487 0.485,-1.565 0.484,-0.71 0.485,-0.174 0.484,-0.63 0.484,-0.285 0.485,0.467 0.484,-0.138 0.484,0.56 0.485,-1.528 0.484,-0.823 0.484,-0.564 0.485,-2.207 0.484,-0.733 0.484,0.028 0.485,0.604 0.484,-1.123 0.485,0.217 0.484,-1.094 0.484,0.488 0.485,0.557 0.484,-0.051 0.484,0.954 0.485,0.09 0.484,-0.711 0.484,-1.061 0.485,-0.466 0.484,-0.603 0.484,1.095 0.485,0.52 0.484,0.425 0.484,-0.945 0.485,-0.172 0.484,-0.358 0.485,0.426 0.484,-0.128 0.484,-0.247 0.485,-1.698 0.484,-0.726 0.484,1.753 0.485,1.118 0.484,-1.114 0.484,-0.908 0.485,-0.702 0.484,1.302 0.484,0.461 0.485,-0.385 0.484,0.322 0.485,-0.471 0.484,-1.019 0.484,1.181 0.485,-1.03 0.484,-1.413 0.484,-1.851 0.485,0.305 0.484,0.898 0.484,0.73 0.485,0.714 0.484,-0.425 0.484,-0.399 0.485,2.563 0.484,0.672 0.485,0.659 0.484,0.178 0.484,-0.866 0.485,0.255 0.484,-1.423 0.484,-0.512 0.485,-0.581 0.484,-0.005 0.484,0.712 0.485,-0.882 0.484,-1.403 0.484,0.368 0.485,-0.287 0.484,-0.314 0.484,-0.392 0.485,0.306 0.484,0.272 0.485,0.379 0.484,-0.319 0.484,0.02 0.485,0.313 0.484,0.33 0.484,0.654 0.485,0.053 0.484,0.048 0.484,0.116 0.485,-1.355 0.484,-1.514 0.484,-0.049 0.485,0.589 0.484,1.22 0.485,-0.493 0.484,-1.37 0.484,0.911 0.485,-1.453 0.484,-0.729 0.484,-1.146 0.485,-3.586 0.484,-1.08 0.484,0.897 0.485,0.65 0.484,0.454 0.484,-0.441 0.485,1.418 0.484,0.244 0.484,0.511 0.485,0.704 0.484,-0.265 0.485,0.427 0.484,0.579 0.484,-0.694 0.485,0.028 0.484,0.202 0.484,-1.343 0.485,-0.93 0.484,-0.087 0.484,0.191 0.485,-1.309 0.484,-0.034 0.484,-1.052 0.485,-0.711 0.484,0.221 0.485,-1.156 0.484,0.785 0.484,0.678 0.485,0.451 0.484,-2.225 0.484,2.156 0.485,0.038 0.484,0.828 0.484,-0.214 0.485,-1.364 0.484,0.494 0.484,-0.448 0.485,0.107 0.484,-0.375 0.484,-0.903 0.485,1.742 0.484,0.168 0.485,0.082 0.484,-1.854 0.484,-0.266 0.485,-0.297 0.484,-0.826 0.484,-0.268 0.485,1.378 0.484,-0.513 0.484,-0.204 0.485,-0.78 0.484,-0.096 0.484,-0.058 0.485,-0.125 0.484,-0.498 0.485,-0.922 0.484,0.787 0.484,0.708 0.485,-0.546 0.484,0.193 0.484,0.114 0.485,-0.021 0.484,-0.498 0.484,-2.662 0.485,0.174 0.484,0.867 0.484,-0.224 0.485,0.439 0.484,-1.593 0.484,-2.586 0.485,0.786 0.484,-0.021 0.485,-0.051 0.484,-0.509 0.484,0.746 0.485,-0.544 0.484,-1.787 0.484,-2.064 0.485,-0.808 0.484,1.236 0.484,-0.26 0.485,-0.165 0.484,-0.166 0.485,-0.327 0.484,0.229 0.484,0.034 0.485,-0.527 0.484,-0.826 0.484,-1.555 0.485,0.571 0.484,-1.38 0.484,-1.624 0.485,-2.003 0.484,-1.126 0.484,0.309 0.485,-0.038 0.484,-0.599 0.484,-0.55 0.485,-0.542 0.484,0.745 0.485,-0.031 0.484,0.15 0.484,-0.316 0.485,0.001 0.484,0.149 0.484,0.824 0.485,-0.878 0.484,0.168 0.484,0.653 0.485,0.755 0.484,-0.183 0.484,0.841 0.485,0.61 0.484,-0.675 0.485,0.071 0.484,-0.668 0.484,-0.643 0.485,-1.572 0.484,-0.172 0.484,1.322 0.485,0.556 0.484,-0.714 0.484,0.108 0.485,0.493 0.484,2.582 0.484,-0.798 0.485,-0.341 0.484,1.019 0.484,0.266 0.485,0.655 0.484,-0.717 0.485,1.441 0.484,-0.169 0.484,0.26 0.485,0.924 0.484,0.436 0.484,-0.448 0.485,-0.295 0.484,0.398 0.484,-1.247 0.485,-2.426 0.484,0.544 0.484,0.568 0.485,-0.413 0.484,-1.039 0.485,0.117 0.484,1.704 0.484,-0.62 0.485,-0.627 0.484,-0.96 0.484,-0.286 0.485,-0.214 0.484,0.629 0.484,-0.384 0.485,0.214 0.484,0.367 0.484,-2.178 0.485,-0.43 0.484,-1.108 0.484,-0.805 0.485,-0.033 0.484,0.279 0.485,0.731 0.484,-0.269 0.484,-0.324 0.485,0.798 0.484,-1.301 0.484,-0.486 0.485,0.755 0.484,-0.144 0.484,-0.04 0.485,0.38 0.484,1.114 0.484,-0.857"
     id="path7922"
     inkscape:connector-curvature="0" />
  <path
     style="fill:none;stroke:#000000;stroke-width:1.36931002;stroke-dasharray:none;stroke-dashoffset:9.43360043"
     d="m 229.839,616.935 v 0 0"
     id="path7934"
     inkscape:connector-curvature="0" />
  <path
     style="fill:none;stroke:#000000;stroke-width:1.36931002;stroke-dasharray:none;stroke-dashoffset:1.66682994"
     d="m 326.613,616.935 v 0 0"
     id="path7942"
     inkscape:connector-curvature="0" />
  <path
     style="fill:none;stroke:#000000;stroke-width:1.36931002;stroke-dasharray:none;stroke-dashoffset:15.80900002"
     d="m 423.387,616.935 v 0 0"
     id="path7950"
     inkscape:connector-curvature="0" />
  <path
     style="fill:none;stroke:#000000;stroke-width:1.36931002;stroke-dasharray:none;stroke-dashoffset:8.0421896"
     d="m 520.161,616.935 v 0 0"
     id="path7958"
     inkscape:connector-curvature="0" />
  <path
     style="fill:none;stroke:#000000;stroke-width:1.36931002;stroke-dasharray:none;stroke-dashoffset:0.275417"
     d="m 616.935,616.935 v 0 0"
     id="path7966"
     inkscape:connector-curvature="0" />
  <path
     style="fill:none;stroke:#000000;stroke-width:1.36931002;stroke-dasharray:none;stroke-dashoffset:10.42459965"
     d="m 133.065,551.219 v 0 0"
     id="path7974"
     inkscape:connector-curvature="0" />
  <path
     style="fill:none;stroke:#000000;stroke-width:1.36931002;stroke-dasharray:none;stroke-dashoffset:2.65785003"
     d="m 133.065,485.503 v 0 0"
     id="path7982"
     inkscape:connector-curvature="0" />
  <path
     style="fill:none;stroke:#000000;stroke-width:1.36931002;stroke-dasharray:none;stroke-dashoffset:16.79999924"
     d="m 133.065,419.786 v 0 0"
     id="path7990"
     inkscape:connector-curvature="0" />
  <path
     style="fill:none;stroke:#000000;stroke-width:1.36931002;stroke-dasharray:none;stroke-dashoffset:9.03320026"
     d="m 133.065,354.07 v 0 0"
     id="path7998"
     inkscape:connector-curvature="0" />
  <path
     style="fill:none;stroke:#000000;stroke-width:1.36931002;stroke-dasharray:none;stroke-dashoffset:1.26643002"
     d="m 133.065,288.353 v 0 0"
     id="path8006"
     inkscape:connector-curvature="0" />
  <path
     style="fill:none;stroke:#000000;stroke-width:1.36931002;stroke-dasharray:none;stroke-dashoffset:15.40859985"
     d="m 133.065,222.637 v 0 0"
     id="path8014"
     inkscape:connector-curvature="0" />
  <path
     style="fill:none;stroke:#000000;stroke-width:1.36931002;stroke-dasharray:none;stroke-dashoffset:7.64178991"
     d="m 133.065,156.92 v 0 0"
     id="path8022"
     inkscape:connector-curvature="0" />
  <path
     style="fill:none;stroke:#000000;stroke-width:2.52999997;stroke-miterlimit:4;stroke-dasharray:none;stroke-dashoffset:0"
     d="m 129.00759,136.44502 v 16.83959 16.8396 16.83959 16.8396 16.8396 16.83959 16.8396 16.83959 16.8396 16.83959 16.8396 16.83959 16.8396 16.8396 16.83959 16.8396 16.83959 16.8396 16.83959 16.8396 16.8396 16.83959 16.8396 16.83959 16.8396 16.83959 16.8396 16.83959 16.8396 16.8396 h 11.07327 -11.07327 15.66086 -15.66086 v -15.66086 15.66086 h 16.8396 16.8396 16.83959 16.8396 16.83959 16.8396 16.83959 16.8396 16.83959 16.8396 16.8396 16.83959 16.8396 16.83959 16.8396 16.83959 16.8396 16.8396 16.83959 16.8396 16.83959 16.8396 16.83959 16.8396 16.83959 16.8396 16.8396 16.83959 16.8396 16.83959 v -15.66086"
     id="path5966"
     inkscape:connector-curvature="0" />
  <path
     style="fill:none;stroke:#000000;stroke-width:1.36931002;stroke-dasharray:none;stroke-dashoffset:9.43360043"
     d="m 243.75143,857.66305 v 0 0"
     id="path6266"
     inkscape:connector-curvature="0" />
  <path
     style="fill:none;stroke:#000000;stroke-width:1.36931002;stroke-dasharray:none;stroke-dashoffset:1.66682994"
     d="m 340.52543,857.66305 v 0 0"
     id="path6274"
     inkscape:connector-curvature="0" />
  <path
     style="fill:none;stroke:#000000;stroke-width:1.36931002;stroke-dasharray:none;stroke-dashoffset:15.80900002"
     d="m 437.29943,857.66305 v 0 0"
     id="path6282"
     inkscape:connector-curvature="0" />
  <path
     style="fill:none;stroke:#000000;stroke-width:1.36931002;stroke-dasharray:none;stroke-dashoffset:8.0421896"
     d="m 534.07343,857.66305 v 0 0"
     id="path6290"
     inkscape:connector-curvature="0" />
  <path
     style="fill:none;stroke:#000000;stroke-width:1.36931002;stroke-dasharray:none;stroke-dashoffset:0.275417"
     d="m 630.84743,857.66305 v 0 0"
     id="path6298"
     inkscape:connector-curvature="0" />
  <path
     style="fill:none;stroke:#000000;stroke-width:1.36931002;stroke-dasharray:none;stroke-dashoffset:8.51572037"
     d="m 146.97743,806.99905 v 0 0"
     id="path6306"
     inkscape:connector-curvature="0" />
  <path
     style="fill:none;stroke:#000000;stroke-width:1.36931002;stroke-dasharray:none;stroke-dashoffset:0.74894297"
     d="m 146.97743,756.33505 v 0 0"
     id="path6314"
     inkscape:connector-curvature="0" />
  <path
     style="fill:none;stroke:#000000;stroke-width:1.36931002;stroke-dasharray:none;stroke-dashoffset:14.89109993"
     d="m 146.97743,705.67105 v 0 0"
     id="path6322"
     inkscape:connector-curvature="0" />
  <path
     style="fill:none;stroke:#000000;stroke-width:1.36931002;stroke-dasharray:none;stroke-dashoffset:7.1243"
     d="m 146.97743,655.00705 v 0 0"
     id="path6330"
     inkscape:connector-curvature="0" />
  <path
     style="fill:none;stroke:#000000;stroke-width:1.36931002;stroke-dasharray:none;stroke-dashoffset:21.26639938"
     d="m 146.97743,604.34205 v 0 0"
     id="path6338"
     inkscape:connector-curvature="0" />
  <path
     style="fill:none;stroke:#000000;stroke-width:1.36931002;stroke-dasharray:none;stroke-dashoffset:13.49969959"
     d="m 146.97743,553.67805 v 0 0"
     id="path6346"
     inkscape:connector-curvature="0" />
  <path
     style="fill:none;stroke:#000000;stroke-width:1.36931002;stroke-dasharray:none;stroke-dashoffset:5.73289013"
     d="m 146.97743,503.01405 v 0 0"
     id="path6354"
     inkscape:connector-curvature="0" />
  <path
     style="fill:none;stroke:#000000;stroke-width:1.36931002;stroke-dasharray:none;stroke-dashoffset:19.875"
     d="m 146.97743,452.35005 v 0 0"
     id="path6362"
     inkscape:connector-curvature="0" />
  <path
     style="fill:none;stroke:#000000;stroke-width:1.36931002;stroke-dasharray:none;stroke-dashoffset:12.10820007"
     d="m 146.97743,401.68605 v 0 0"
     id="path6370"
     inkscape:connector-curvature="0" />
  <text
     xml:space="preserve"
     style="font-style:normal;font-variant:normal;font-weight:normal;font-stretch:normal;font-size:50.87321854px;line-height:67.83095551px;font-family:'Liberation Serif';-inkscape-font-specification:'Liberation Serif, Normal';text-align:center;letter-spacing:0px;word-spacing:0px;writing-mode:lr-tb;text-anchor:middle;fill:#3d3d3d;fill-opacity:1;stroke:none;stroke-width:2.71323824px;stroke-linecap:butt;stroke-linejoin:miter;stroke-opacity:1"
     x="-384.87054"
     y="104.01055"
     id="text6746"
     transform="rotate(-90.244462)"
     inkscape:transform-center-x="-10.112226"
     inkscape:transform-center-y="3.3707421"><tspan
       sodipodi:role="line"
       id="tspan6744"
       x="-384.87054"
       y="104.01055"
       style="font-style:normal;font-variant:normal;font-weight:normal;font-stretch:normal;font-size:33.33333206px;font-family:'Liberation Sans';-inkscape-font-specification:'Liberation Sans';fill:#3d3d3d;fill-opacity:1;stroke-width:2.71323824px">MSD</tspan></text>
  <text
     inkscape:transform-center-y="10.112242"
     inkscape:transform-center-x="3.3707494"
     transform="rotate(-0.244462)"
     id="text6750"
     y="681.28412"
     x="379.51389"
     style="font-style:normal;font-variant:normal;font-weight:normal;font-stretch:normal;font-size:50.87321854px;line-height:67.83095551px;font-family:'Liberation Serif';-inkscape-font-specification:'Liberation Serif, Normal';text-align:center;letter-spacing:0px;word-spacing:0px;writing-mode:lr-tb;text-anchor:middle;fill:#3c3c3c;fill-opacity:1;stroke:none;stroke-width:2.71323824px;stroke-linecap:butt;stroke-linejoin:miter;stroke-opacity:1"
     xml:space="preserve"><tspan
       style="font-style:normal;font-variant:normal;font-weight:normal;font-stretch:normal;font-size:33.33333206px;font-family:'Liberation Sans';-inkscape-font-specification:'Liberation Sans';fill:#3c3c3c;fill-opacity:1;stroke-width:2.71323824px"
       y="681.28412"
       x="379.51389"
       id="tspan6748"
       sodipodi:role="line">time</tspan></text>
  <path
     style="fill:none;fill-rule:evenodd;stroke:#000000;stroke-width:1px;stroke-linecap:butt;stroke-linejoin:miter;stroke-opacity:1"
     d="m 129.00759,136.44502 h 14.0844"
     id="path6752"
     inkscape:connector-curvature="0" />
  <text
     inkscape:transform-center-y="10.112227"
     inkscape:transform-center-x="3.3707495"
     transform="rotate(-0.244462)"
     id="text6760"
     y="114.32984"
     x="396.11749"
     style="font-style:normal;font-variant:normal;font-weight:normal;font-stretch:normal;font-size:46.66666412px;line-height:67.83095551px;font-family:'Liberation Serif';-inkscape-font-specification:'Liberation Serif, Normal';text-align:center;letter-spacing:0px;word-spacing:0px;writing-mode:lr-tb;text-anchor:middle;fill:#3d3d3d;fill-opacity:1;stroke:none;stroke-width:2.71323824px;stroke-linecap:butt;stroke-linejoin:miter;stroke-opacity:1"
     xml:space="preserve"><tspan
       style="font-style:normal;font-variant:normal;font-weight:normal;font-stretch:normal;font-size:46.66666412px;font-family:'Liberation Sans';-inkscape-font-specification:'Liberation Sans';fill:#3d3d3d;fill-opacity:1;stroke-width:2.71323824px"
       y="114.32984"
       x="396.11749"
       id="tspan6758"
       sodipodi:role="line">Subiffusion, α &lt; 1</tspan></text>
</svg>
